<svg width="199" height="72" viewBox="0 0 199 72" fill="none" xmlns="http://www.w3.org/2000/svg">
<path d="M35.5994 64.6766C34.839 64.7835 33.9377 64.7163 32.8957 64.475C31.8643 64.3097 31.007 64.0037 30.3238 63.5569C28.2636 62.1404 26.9317 60.3888 26.3283 58.3023C25.7142 56.1397 25.1707 53.9283 24.698 51.6683C24.4473 52.0913 24.0931 52.6064 23.6356 53.2135C23.2435 53.7339 22.884 54.2109 22.5572 54.6446C22.3611 54.9048 22.1757 55.2411 22.001 55.6534C21.8156 55.9896 21.6303 56.3259 21.4449 56.6621C20.9874 57.2693 20.5518 57.757 20.1383 58.1253C19.7141 58.4176 19.3386 58.7805 19.0118 59.2142C18.8811 59.3877 18.6303 59.8107 18.2595 60.4832C18.1502 60.8087 17.9595 61.1069 17.6873 61.3778C17.4045 61.5727 17.1704 61.8382 16.985 62.1745C16.4634 62.3253 16.0445 62.6556 15.7284 63.1653C15.4777 63.5883 15.1942 64.0547 14.8781 64.5644C14.1604 64.9755 13.3827 65.5113 12.5449 66.1719C11.7726 66.7457 10.9681 67.0914 10.1316 67.209C9.06694 67.3586 7.85081 67.2581 6.4832 66.9075C5.19164 66.5461 3.98743 65.9787 2.87058 65.205C1.74303 64.3554 1.02305 63.3709 0.710643 62.2516L0.596573 62.2676L0.308006 60.2143C0.137003 58.9976 0.176876 58.1777 0.427624 57.7547C0.547655 57.5052 0.624318 57.223 0.657614 56.9081C0.680223 56.5172 0.713519 56.2023 0.757503 55.9635L2.03385 53.4577C2.20855 53.0454 2.68272 52.2808 3.45634 51.1639C4.306 50.0364 5.19369 48.9035 6.11941 47.7653C7.04512 46.627 7.7094 45.8357 8.11224 45.3914C8.6458 44.7736 9.47286 44.0369 10.5934 43.1815C11.714 42.3261 12.8345 41.4707 13.9551 40.6152C15.1517 39.7491 16.1035 39.0725 16.8105 38.5854L17.2508 38.4072C17.5883 38.0496 18.1539 37.6599 18.9477 37.2381C19.8068 36.7297 20.4211 36.4107 20.7907 36.2812C21.2256 36.065 21.9373 35.8874 22.9259 35.7485C23.9038 35.5335 24.6536 35.3505 25.1753 35.1997C25.6315 35.1356 26.0011 35.0061 26.2839 34.8112L28.7756 35.159C29.6228 35.1175 30.6648 35.3588 31.9017 35.8829C33.1386 36.407 33.8699 37.196 34.0955 38.25C34.3224 38.7609 34.3432 39.1845 34.1578 39.5208L33.051 39.0947C32.4011 38.333 31.5712 37.9456 30.5612 37.9324C29.6166 37.8325 28.65 37.8521 27.6614 37.991C25.5321 38.2903 23.3255 39.1432 21.0416 40.5499C18.7471 41.8805 16.6147 43.5373 14.6444 45.5203C12.6635 47.4272 10.9321 49.4541 9.45025 51.6011C8.04442 53.7374 7.08417 55.7335 6.56952 57.5895C6.52554 57.8283 6.48156 58.0671 6.43757 58.306C6.46964 58.5341 6.45833 58.7296 6.40366 58.8923C6.2824 59.6849 6.15579 60.4394 6.02384 61.1559C5.96793 61.8617 6.03679 62.6275 6.2304 63.4533C6.30521 63.9856 6.42401 64.2791 6.58679 64.3338C6.74957 64.3885 7.09117 64.6119 7.61157 65.004L8.57223 65.218L9.32262 64.7636L10.1871 64.2931C10.7634 63.9794 11.215 63.6058 11.5417 63.1721C11.8246 62.9773 12.08 62.8638 12.3082 62.8318C12.5256 62.7237 12.629 62.6316 12.6183 62.5555C13.1293 62.3286 13.3687 62.1011 13.3367 61.873C13.3699 61.5581 13.5553 61.2218 13.8928 60.8642C14.8839 59.6392 15.8423 58.4576 16.768 57.3194C17.7591 56.0944 18.6688 54.8421 19.497 53.5625C19.9439 52.8793 20.4941 52.104 21.1477 51.2367C21.8773 50.3587 22.5309 49.4913 23.1084 48.6347C23.3045 48.3745 23.4626 48.1196 23.5826 47.8701C23.768 47.5338 23.9207 47.241 24.0407 46.9914C24.3355 46.3296 24.7883 45.413 25.3991 44.2414C25.9992 42.9939 26.7936 42.3006 27.7822 42.1617C27.9236 42.0642 28.1464 41.9941 28.4506 41.9514C29.2111 41.8445 29.8622 42.0632 30.404 42.6075C30.9351 43.0757 31.2434 43.6139 31.3289 44.2223C31.4358 44.9828 31.3852 45.7266 31.1772 46.4538C30.9585 47.1049 30.8212 47.7834 30.7653 48.4892C30.7069 50.281 30.7953 52.0134 31.0305 53.6864C31.1053 54.2188 31.1801 54.7511 31.2549 55.2834C31.3297 55.8157 31.4479 56.3807 31.6094 56.9784C32.062 58.5433 33.0636 59.876 34.6141 60.9764L35.0864 61.0264C36.0656 60.2684 36.7025 59.5585 36.9972 58.8967C37.368 58.2242 37.8695 57.3782 38.5017 56.3587C38.5017 56.3587 38.5724 56.31 38.7138 56.2126C38.8446 56.0391 38.9479 55.9471 39.024 55.9364C39.3282 55.8936 39.5016 56.0243 39.5444 56.3285L39.5604 56.4426C39.6032 56.7468 39.6079 57.0563 39.5746 57.3712C39.5306 57.61 39.4973 57.9249 39.4747 58.3158C39.5269 59.2391 39.2363 60.4819 38.6029 62.0444C38.0455 63.5961 37.0443 64.4735 35.5994 64.6766Z" fill="#2B1205"/>
<path d="M49.4457 71.5712C48.7613 71.6674 47.822 71.6055 46.6279 71.3856C45.4444 71.2417 44.3483 70.8917 43.3396 70.3355C42.2548 69.7901 41.5722 69.0717 41.2919 68.1805C41.2705 68.0284 41.3145 67.7896 41.4238 67.4641C41.4678 67.2252 41.6419 67.0844 41.9461 67.0417C42.5545 66.9562 42.9721 67.1689 43.199 67.6799C43.4259 68.1908 43.6748 68.5824 43.9457 68.8545C44.3901 69.2573 44.9598 69.4487 45.6549 69.4285C46.3607 69.4844 47.0178 69.4696 47.6261 69.3841C48.0824 69.32 48.5387 69.2559 48.995 69.1918C49.4513 69.1276 49.8642 69.0308 50.2337 68.9013C50.6686 68.6851 51.0382 68.5556 51.3424 68.5129C51.7012 68.3074 52.0928 68.0585 52.517 67.7662C52.9519 67.55 53.3541 67.3771 53.7237 67.2476C54.3867 66.9993 54.9577 66.6477 55.4366 66.1926C55.9261 65.8136 56.4157 65.4346 56.9053 65.0556C59.7227 63.0311 62.1599 61.0601 64.2169 59.1425C66.3499 57.2142 68.31 54.8837 70.0973 52.1509C70.6095 51.381 71.2637 50.2421 72.0599 48.7344C72.8455 47.1505 73.1415 45.9457 72.9478 45.1199C73.5706 43.4814 73.7698 41.8637 73.5453 40.2667C73.4598 39.6583 73.287 39.2561 73.0268 39.06C72.8319 38.7772 72.4303 38.6785 71.8219 38.764C70.6812 38.9243 69.6813 39.2587 68.8222 39.7672C68.0391 40.265 67.1473 40.8169 66.1468 41.4228C65.8533 41.5416 65.293 41.9693 64.466 42.7059C63.6389 43.4426 62.7085 44.2713 61.6746 45.192C60.7062 46.0261 59.8518 46.8441 59.1114 47.6461C58.4472 48.4374 58.1311 48.9471 58.1631 49.1752C57.8696 49.294 57.6142 49.4075 57.3967 49.5156C57.1686 49.5477 56.9838 49.6124 56.8424 49.7098C56.6142 49.7419 56.3855 50.0455 56.1561 50.6205L55.8941 51.239C55.7847 51.5645 55.6593 51.776 55.5179 51.8735C54.8643 52.7408 54.3789 53.7008 54.0615 54.7536C53.8096 55.7196 53.5196 56.6909 53.1915 57.6676C53.0822 57.9932 52.9996 58.5088 52.9437 59.2146C52.8878 59.9204 52.8105 60.4741 52.7118 60.8757C52.6452 61.5055 52.4539 62.0752 52.1378 62.5849C51.9084 63.16 51.4515 63.4957 50.7671 63.5918C50.1587 63.6773 49.4809 63.2685 48.7336 62.3654C47.9969 61.5384 47.5532 60.864 47.4023 60.3424C47.4023 60.3424 47.397 60.3044 47.3863 60.2283C47.3756 60.1523 47.4029 60.0709 47.4683 59.9841L47.4202 59.6419C47.5748 58.5345 47.9408 57.5525 48.5184 56.6958C49.1613 55.7525 49.6901 54.8251 50.1049 53.9138C50.5957 52.9918 50.9671 52.0478 51.219 51.0818C51.5471 50.1051 51.9185 49.1611 52.3332 48.2497C52.868 47.0889 53.2941 45.9821 53.6114 44.9294C54.0048 43.8659 54.3602 42.8079 54.6775 41.7551C55.0709 40.6917 55.4263 39.6336 55.7436 38.5809C56.137 37.5175 56.6445 36.438 57.266 35.3426C58.0408 33.6827 58.7777 32.0281 59.4765 30.379C60.2513 28.7191 61.0802 27.1679 61.9632 25.7255C62.41 25.0423 63.0969 23.8601 64.0239 22.1789C65.0269 20.4869 66.1005 18.7463 67.2449 16.9569C68.3893 15.1676 69.5224 13.5737 70.6442 12.1752C71.8314 10.6901 72.8379 9.85067 73.6637 9.65706L74.3481 9.56087C74.7283 9.50743 75.4502 9.67741 76.5136 10.0708C77.6424 10.3774 78.7111 10.8089 79.7199 11.365C80.794 11.8345 81.4338 12.2486 81.6393 12.6075C81.7261 12.6728 81.8669 12.8469 82.0617 13.1297C82.2566 13.4125 82.37 13.668 82.4021 13.8961C82.4235 14.0482 82.3581 14.135 82.206 14.1564C81.9018 14.1991 81.4622 14.1058 80.8871 13.8764C80.6376 13.7564 80.274 13.6524 79.7963 13.5644C79.308 13.4004 78.9117 13.3398 78.6076 13.3825C77.9992 13.468 77.5916 13.6029 77.3848 13.787C77.2434 13.8844 77.1454 14.0145 77.0907 14.1773C76.84 14.6003 76.6546 14.9365 76.5346 15.1861C76.4906 15.4249 76.2618 15.7285 75.8483 16.0968C75.5001 16.3784 75.0866 16.7467 74.6077 17.2017C74.1942 17.57 73.8674 18.0037 73.6273 18.5027L73.5453 18.7469C73.436 19.0725 73.1585 19.3053 72.7129 19.4455C72.4301 19.6403 72.2233 19.8245 72.0926 19.998L72.0266 20.3562C71.8413 20.6925 71.6666 21.1048 71.5025 21.5931C71.3278 22.0054 71.1531 22.4177 70.9784 22.83C70.6956 23.0248 70.3148 23.3498 69.8359 23.8048C69.4223 24.1731 69.1556 24.4821 69.0355 24.7316C68.7515 25.4694 68.3861 26.18 67.9392 26.8631C67.5685 27.5356 67.1216 28.2188 66.5988 28.9127C66.2613 29.2703 65.7871 30.0349 65.1763 31.2064C64.6415 32.3673 64.112 33.5661 63.5879 34.803C63.0531 35.9639 62.6711 36.8318 62.4417 37.4069C62.103 38.3075 61.5201 39.1262 60.693 39.8628C59.866 40.5994 59.4512 41.5108 59.4487 42.5968L58.8765 43.4915C60.0624 42.5493 61.2917 41.6398 62.5644 40.763C63.837 39.8862 65.1477 39.0041 66.4964 38.1166C66.8006 38.0739 67.0614 37.9984 67.2789 37.8903C67.4856 37.7062 67.7411 37.5927 68.0453 37.55C68.4042 37.3444 68.9965 37.1449 69.8223 36.9512C70.7242 36.7469 71.4359 36.5694 71.9576 36.4185C72.3592 36.5172 72.9129 36.5944 73.6187 36.6503C74.3138 36.6302 74.8402 36.7889 75.1978 37.1264C76.0877 37.389 77.0098 37.8798 77.9638 38.5988C78.9072 39.2417 79.4811 40.0141 79.6854 40.9159C80.0405 42.3395 79.9008 44.1039 79.2661 46.2094C78.6314 48.3149 77.9706 49.9587 77.2837 51.1409C77.033 51.5639 76.7549 52.0683 76.4495 52.6541C76.2094 53.1531 75.8826 53.5868 75.4691 53.9551C75.4037 54.0418 75.2297 54.1826 74.9468 54.3774C74.6533 54.4962 74.4739 54.599 74.4086 54.6857C74.1031 55.2715 73.847 55.6565 73.6403 55.8406C73.4989 55.938 73.3575 56.0355 73.2161 56.1329C73.1507 56.2196 73.0527 56.3497 72.9219 56.5232C72.4644 57.1303 72.2083 57.5153 72.1537 57.6781C72.175 57.8302 71.7615 58.1985 70.9131 58.783C70.8037 59.1086 70.5476 59.4935 70.1448 59.9379C69.742 60.3823 69.4425 60.7345 69.2464 60.9947L68.2679 61.4812C68.1692 61.8828 67.7717 62.3652 67.0754 62.9284C66.3897 63.5676 65.6554 64.1361 64.8723 64.6339C64.0999 65.2077 63.5396 65.6354 63.1915 65.917C62.6912 66.22 62.267 66.5122 61.9188 66.7938C61.6574 67.1407 61.2332 67.433 60.6462 67.6706C60.3527 67.7894 59.8144 68.0977 59.0313 68.5955C58.2482 69.0933 57.7967 69.467 57.6766 69.7165C57.3618 69.6832 57.1663 69.6719 57.0903 69.6826C57.0903 69.6826 56.9489 69.78 56.666 69.9748C55.492 70.45 54.2967 70.7731 53.0799 70.9441C51.8739 71.1912 50.6625 71.4002 49.4457 71.5712Z" fill="#2B1205"/>
<path d="M99.0311 57.5067C98.2707 57.6136 97.6082 57.5904 97.0438 57.437C96.5662 57.3491 96.1265 57.2558 95.7249 57.1571C95.4754 57.0371 95.1825 56.8844 94.8463 56.699C94.5861 56.5029 94.3039 56.4262 93.9997 56.469C93.9023 56.3276 93.7235 56.1588 93.4633 55.9628L92.9589 55.6847C92.1997 55.2485 91.6525 54.6663 91.3175 53.9379C90.9825 53.2095 90.7455 52.351 90.6066 51.3623C90.4249 50.0696 90.5634 48.8481 91.0222 47.6979C91.4809 46.5478 91.8149 45.3376 92.0241 44.0674C92.1228 43.6658 92.1454 43.2749 92.092 42.8947C92.0385 42.5144 92.0231 42.1288 92.0457 41.7379C92.123 41.1842 92.2817 40.6579 92.5217 40.1588C92.7618 39.6598 93.0018 39.1608 93.2419 38.6617C94.5635 35.374 96.3128 32.6466 98.4897 30.4795C100.656 28.2363 103.359 26.2279 106.6 24.4542C106.959 24.2486 107.584 24.0057 108.475 23.7253C109.442 23.4343 110.116 23.2621 110.496 23.2086C111.104 23.1231 111.691 23.157 112.255 23.3104C112.809 23.3876 113.363 23.4649 113.916 23.5422C114.079 23.5969 114.242 23.6515 114.405 23.7062C114.633 23.6742 114.899 23.6367 115.203 23.594L115.023 23.9683C115.75 24.1763 116.341 24.5197 116.796 24.9986C117.328 25.4668 117.891 25.8916 118.488 26.2731L119.643 27.0414C119.99 27.3028 120.238 27.6944 120.389 28.216C120.606 28.6509 120.735 29.0204 120.778 29.3246C121.08 30.3679 121.148 31.4052 120.982 32.4366C120.883 33.3812 120.701 34.2985 120.439 35.1884C120.089 36.013 119.707 36.881 119.292 37.7923C118.867 38.6276 118.403 39.4682 117.902 40.3142C117.477 41.1495 117.051 41.9848 116.626 42.82C116.2 43.6553 115.693 44.4633 115.105 45.2439C114.974 45.4173 114.648 45.851 114.125 46.5449C113.591 47.1627 113.063 47.8186 112.54 48.5124C112.093 49.1956 111.843 49.6186 111.788 49.7814C111.135 50.1057 110.613 50.5281 110.221 51.0485L109.633 51.8291C108.456 53.3903 106.852 54.6628 104.818 55.6464C102.785 56.6301 100.856 57.2502 99.0311 57.5067ZM99.2969 55.2592C99.3622 55.1725 99.471 55.1184 99.623 55.0971L100.602 54.6106C100.96 54.405 101.287 54.2429 101.58 54.1241C101.95 53.9946 102.167 53.8865 102.232 53.7997C102.515 53.6049 103.07 53.1392 103.897 52.4025C104.8 51.6552 105.622 50.8806 106.362 50.0786C107.103 49.2766 107.414 48.7289 107.295 48.4354C107.795 48.1324 108.356 47.4332 108.977 46.3377C109.675 45.2315 110.286 44.06 110.81 42.8231C111.41 41.5755 111.792 40.7076 111.956 40.2192C112.055 39.8176 112.159 39.454 112.268 39.1285C112.378 38.8029 112.563 38.4667 112.824 38.1197C112.771 37.7395 112.799 37.3866 112.908 37.061C113.094 36.7248 113.17 36.4426 113.138 36.2145C113.269 36.041 113.313 35.8022 113.27 35.498C113.293 35.1071 113.331 34.8302 113.386 34.6674C113.453 34.0377 113.513 33.6414 113.568 33.4786L113.438 33.3806C113.493 33.2178 113.509 33.0604 113.488 32.9083C113.532 32.6694 113.586 32.5067 113.652 32.4199L113.604 32.0777C113.55 31.6975 113.54 31.3499 113.573 31.0351C113.596 30.6441 113.543 30.2639 113.413 29.8944C113.523 29.5688 113.561 29.292 113.529 29.0638C113.497 28.8357 113.427 28.6129 113.319 28.3954C113.287 28.1673 113.217 27.9445 113.109 27.727L113.207 27.5969C113.034 26.9232 112.726 26.3849 112.282 25.9821C111.837 25.5792 111.311 25.4206 110.703 25.5061C108.801 25.7732 107.198 26.5027 105.892 27.6944C104.586 28.886 103.334 30.1864 102.136 31.5956C101.657 32.0506 101.217 32.5003 100.814 32.9447C100.487 33.3783 100.171 33.8881 99.8654 34.4738C99.8761 34.5499 99.8487 34.6313 99.7834 34.718C99.9141 34.5445 100.126 34.3984 100.42 34.2796C101.029 33.6511 101.866 33.262 102.931 33.1124C103.311 33.0589 104.12 33.2943 105.357 33.8184C106.594 34.3425 107.255 34.9087 107.34 35.5171L107.42 36.0874C106.856 35.9341 106.531 35.8248 106.444 35.7594L105.955 35.5954C105.63 35.4861 105.277 35.4581 104.897 35.5115C103.68 35.6825 102.467 36.4346 101.259 37.7677C100.126 39.0901 99.2167 40.3424 98.5298 41.5246C98.083 42.2078 97.6742 42.8856 97.3034 43.5581C96.9219 44.1546 96.8387 44.9417 97.0537 45.9197C97.466 46.0944 97.7909 46.4752 98.0285 47.0622C97.8111 47.1703 97.5883 47.2404 97.3601 47.2725C96.9799 47.3259 96.573 47.1892 96.1393 46.8624C95.9539 47.1987 95.8226 47.6437 95.7453 48.1974C95.668 48.7511 95.58 49.2287 95.4814 49.6303L95.3013 50.0046C95.3441 50.3088 95.3488 50.6183 95.3155 50.9332C95.3583 51.2374 95.439 51.5362 95.5578 51.8297C95.7942 52.9597 96.194 53.8729 96.7571 54.5693C97.3096 55.1895 98.1562 55.4195 99.2969 55.2592Z" fill="#2B1205"/>
<path d="M136.332 50.6359C134.887 50.8389 133.677 50.5049 132.702 49.6339C131.792 48.6761 131.246 47.5508 131.064 46.258C130.818 44.509 130.888 42.5217 131.273 40.2962C131.647 37.9947 132.037 36.0787 132.443 34.5483C132.52 33.9946 132.684 33.5063 132.935 33.0833C133.175 32.5842 133.252 32.0305 133.167 31.4222C133.363 31.162 133.532 30.7116 133.675 30.0712C133.893 29.4201 134.019 28.9371 134.053 28.6222C133.78 28.8931 133.448 29.2887 133.056 29.8092C132.664 30.3296 132.289 30.6925 131.93 30.8981L131.571 30.8321C131.301 30.56 131.252 30.2177 131.427 29.8055C131.558 29.632 131.716 29.3771 131.901 29.0409C132.152 28.6179 132.408 28.2329 132.67 27.886C132.92 27.463 133.138 27.0834 133.324 26.7471C133.585 26.4002 133.743 26.1453 133.798 25.9826C134.245 25.2994 134.599 24.7843 134.86 24.4374C135.111 24.0144 135.579 23.4833 136.265 22.8441C136.656 22.8667 137.286 22.9333 138.154 23.0439C139.088 23.0677 140 23.211 140.89 23.4736C141.769 23.6603 142.246 24.0197 142.321 24.5521C142.461 24.9977 142.259 25.7628 141.713 26.8476C141.233 27.8457 140.677 28.8545 140.045 29.8739C139.488 30.8826 139.096 31.6746 138.866 32.2496C138.452 33.161 138.135 33.9422 137.916 34.5933C137.697 35.2444 137.511 35.8522 137.358 36.4166L136.338 40.7475C136.141 41.5508 136.009 42.2672 135.942 42.897C135.876 43.5267 135.825 44.2706 135.791 45.1284C135.801 45.2045 135.785 45.3619 135.741 45.6008C135.762 45.7528 135.784 45.9049 135.805 46.057C135.848 46.3612 135.928 46.6601 136.047 46.9536C136.242 47.2364 136.492 47.3564 136.796 47.3137C137.1 47.2709 137.486 46.984 137.954 46.4529C139.38 45.0117 140.54 43.6079 141.434 42.2415C141.957 41.5477 142.442 40.8591 142.888 40.176C143.335 39.4928 143.847 38.7228 144.425 37.8662C145.841 35.8059 147.263 33.7837 148.691 31.7995C150.183 29.7286 151.562 27.6737 152.826 25.6348C153.142 25.1251 153.48 24.4959 153.84 23.7474C154.19 22.9228 154.631 22.4731 155.163 22.3983L155.277 22.3823C155.733 22.3181 156.602 22.4287 157.883 22.714C159.153 22.9232 159.82 23.256 159.884 23.7123L159.948 24.1685C160.045 24.853 159.94 25.488 159.634 26.0738C159.449 26.4101 159.296 26.7029 159.176 26.9525C159.056 27.202 158.947 27.5275 158.848 27.9291C158.836 28.3961 158.776 28.7924 158.666 29.1179C158.557 29.4435 158.42 29.8505 158.256 30.3388C157.732 31.5757 157.31 33.2635 156.991 35.4023C156.671 37.541 156.64 39.2515 156.897 40.5336C156.951 40.9138 157.08 41.5549 157.284 42.4567C157.554 43.2719 157.851 43.7341 158.177 43.8435C158.927 43.6605 159.466 43.0807 159.794 42.104C160.198 41.1167 160.552 40.3301 160.858 39.7443C161.163 39.1586 161.582 38.8283 162.114 38.7535C162.223 38.9709 162.303 39.2698 162.357 39.65C162.4 39.9542 162.366 40.2691 162.257 40.5946C162.148 40.9202 162.044 41.2838 161.945 41.6854C161.857 42.163 161.769 42.6407 161.681 43.1183C161.658 43.5093 161.522 43.9162 161.271 44.3392C160.932 45.2398 160.154 45.7757 158.938 45.9467C157.189 46.1925 155.522 45.9226 153.938 45.1371C152.431 44.3408 151.504 43.269 151.16 41.9215C150.881 40.4873 150.803 38.831 150.927 36.9524C151.127 35.0631 151.402 33.4347 151.753 32.0671C151.742 31.9911 151.731 31.915 151.72 31.839C151.786 31.7522 151.813 31.6709 151.802 31.5948C151.41 32.1152 151.062 32.6683 150.756 33.2541C150.451 33.8398 150.015 34.3276 149.45 34.7172L148.551 35.7741C147.994 37.3258 147.225 38.7522 146.245 40.0533C145.264 41.3543 144.327 42.688 143.433 44.0543C142.616 45.41 141.646 46.7871 140.524 48.1855C139.479 49.5733 138.081 50.3901 136.332 50.6359Z" fill="#2B1205"/>
<path d="M183.598 51.6704C183.066 51.7452 182.268 51.5859 181.205 51.1925C180.228 50.8645 179.528 50.5751 179.105 50.3243C177.631 49.2132 176.712 47.3649 176.348 44.7793C176.081 42.8781 176.075 40.9015 176.329 38.8495C176.573 36.7214 176.914 34.7348 177.353 32.8895C177.781 30.9682 178.153 29.4812 178.471 28.4284C178.591 28.1789 178.7 27.8534 178.799 27.4518C178.887 26.9741 179.045 26.4477 179.275 25.8727C179.527 24.9067 179.86 23.968 180.275 23.0567L178.856 23.7214L178.286 23.8015C177.589 24.3647 176.801 24.8244 175.921 25.1808C175.105 25.4505 174.296 25.7582 173.491 26.1039C172.611 26.4603 171.784 26.9254 171.012 27.4992C170.229 27.997 169.446 28.4948 168.663 28.9926C168.673 29.0687 168.565 29.1227 168.336 29.1548C167.956 29.2082 167.587 29.0662 167.23 28.7287C166.861 28.3152 166.656 27.9563 166.613 27.6522C166.581 27.424 167 27.0937 167.87 26.6613C168.653 26.1635 169.626 25.639 170.789 25.0877C172.018 24.4498 173.143 23.9039 174.165 23.4501C175.252 22.9095 175.981 22.5745 176.35 22.445C176.937 22.2074 177.448 21.9805 177.883 21.7643C178.318 21.5481 178.753 21.3318 179.188 21.1156L179.172 21.0016L179.628 20.9374C180.236 20.8519 180.677 20.6737 180.949 20.4028C181.42 18.7857 182.206 16.6589 183.309 14.0223C184.401 11.3097 185.688 8.87992 187.17 6.73294C187.497 6.29927 187.623 5.81626 187.548 5.28394C187.55 4.74092 187.708 4.21456 188.024 3.70484C188.547 3.01096 188.972 2.44719 189.299 2.01352C189.702 1.56916 190.251 1.0654 190.948 0.502245C191.415 0.514165 192.212 0.673454 193.341 0.980108C194.47 1.28676 195.528 1.64212 196.515 2.0462C197.579 2.43958 198.143 2.86442 198.207 3.3207C198.239 3.54884 197.917 4.02053 197.242 4.73579C196.557 5.37499 195.833 6.01953 195.071 6.66942C194.31 7.31931 193.793 7.77971 193.521 8.0506L192.754 8.39096C191.948 9.27968 191.224 10.1957 190.581 11.1391C189.938 12.0825 189.252 12.9932 188.522 13.8713C188.13 14.3917 187.825 14.9774 187.606 15.6285C187.453 16.1929 187.18 16.7353 186.788 17.2557L186.868 17.8261C186.661 18.0102 186.498 18.2271 186.378 18.4766C188.41 18.0359 190.018 17.8875 191.201 18.0314C192.45 18.0886 193.757 18.5639 195.124 19.4576C195.297 19.5883 195.4 19.7677 195.432 19.9959C195.464 20.224 195.366 20.3541 195.138 20.3862L194.682 20.4503L194.666 20.3362L194.568 20.4663C192.678 20.2666 190.897 20.2842 189.224 20.5194C188.54 20.6156 187.899 20.7444 187.301 20.906C186.703 21.0675 186.182 21.2184 185.736 21.3586C185.736 21.3586 185.556 21.7328 185.196 22.4814C184.825 23.1539 184.46 23.8644 184.1 24.613C183.729 25.2855 183.554 25.6977 183.576 25.8498C183.456 26.0994 183.226 26.6744 182.887 27.5751C182.625 28.465 182.367 29.393 182.115 30.359C181.951 30.8473 181.787 31.3357 181.623 31.824C181.525 32.2256 181.421 32.5892 181.311 32.9148L180.885 34.0216C180.96 34.5539 180.926 35.1403 180.784 35.7807C180.706 36.3344 180.624 36.8501 180.536 37.3278L180.422 37.3438L180.454 37.5719C180.518 38.0282 180.473 38.5385 180.32 39.1029C180.232 39.5806 180.139 40.0202 180.04 40.4218C179.906 42.2243 179.945 43.8861 180.159 45.407C180.212 45.7872 180.266 46.1675 180.319 46.5477C180.373 46.9279 180.464 47.3028 180.594 47.6724C180.821 48.1833 181.037 48.6182 181.242 48.9771C181.524 49.3252 181.909 49.5813 182.397 49.7454C182.625 49.7133 182.821 49.7246 182.984 49.7793L183.912 49.7651C184.846 49.7889 185.335 49.9529 185.377 50.2571C185.452 50.7894 185.229 51.131 184.707 51.2819C184.272 51.4981 183.903 51.6276 183.598 51.6704Z" fill="#2B1205"/>
</svg>
