<svg width="497" height="230" viewBox="0 0 497 230" fill="none" xmlns="http://www.w3.org/2000/svg">
<g filter="url(#filter0_d_1140_3826)">
<path d="M274.962 206.003C274.582 206.057 274.186 205.996 273.773 205.821C272.622 205.906 271.521 205.518 270.469 204.657C269.352 203.884 268.442 202.926 267.739 201.784C266.959 200.653 266.478 199.712 266.295 198.962C266.123 198.289 266.065 197.599 266.121 196.893C266.101 196.198 266.08 195.503 266.06 194.808C266.387 194.374 266.546 193.848 266.536 193.229C266.462 192.696 266.425 192.159 266.426 191.616C266.603 190.117 266.714 189.249 266.758 189.01C266.802 188.771 266.916 188.484 267.102 188.147C267.222 187.898 267.414 187.057 267.678 185.624L267.76 185.379C267.738 185.227 267.793 185.065 267.924 184.891L267.762 184.565C268.078 184.055 268.274 183.524 268.352 182.97C268.429 182.416 268.544 181.857 268.698 181.293C268.96 180.403 269.223 179.513 269.486 178.623C269.835 177.798 270.184 176.974 270.534 176.149C271.003 175.075 271.44 174.044 271.844 173.057C272.237 171.993 272.669 170.925 273.138 169.851C273.378 169.352 273.624 168.891 273.874 168.468C274.115 167.968 274.317 167.475 274.481 166.986C274.897 165.532 275.438 163.866 276.105 161.989C276.771 160.112 277.47 158.462 278.201 157.041L278.055 156.829L278.317 156.211C278.373 155.505 278.679 154.648 279.235 153.639C279.781 152.554 280.054 151.74 280.055 151.197C279.295 151.304 278.267 151.72 276.973 152.445C275.669 153.093 274.347 153.899 273.009 154.863C271.661 155.75 270.551 156.682 269.68 157.657C268.798 158.557 268.438 159.305 268.599 159.903C268.729 160.273 269.005 160.583 269.428 160.833C269.84 161.008 270.209 161.15 270.535 161.26L270.583 161.602C270.507 161.612 270.436 161.661 270.371 161.748L270.501 161.846C270.425 161.857 270.382 161.824 270.371 161.748L270.289 161.992C269.746 161.991 269.002 161.94 268.057 161.84C267.113 161.74 266.228 161.516 265.404 161.166C264.579 160.817 264.119 160.3 264.022 159.616C263.905 158.779 264.396 157.857 265.495 156.85C266.583 155.766 267.911 154.727 269.477 153.731C271.032 152.659 272.533 151.75 273.979 151.004C275.491 150.172 276.583 149.669 277.257 149.497L279.703 148.688L281.61 148.187C282.1 147.265 282.591 146.343 283.082 145.421C283.638 144.412 284.124 143.452 284.538 142.541L284.767 142.509L284.865 142.379L285.435 142.299L285.533 142.169C286.304 142.138 287.292 142.542 288.495 143.381C289.688 144.144 290.365 144.824 290.527 145.422C290.57 145.726 290.493 146.008 290.297 146.268C290.101 146.528 289.823 146.761 289.464 146.967L289.154 147.243C288.806 147.525 288.643 147.742 288.664 147.894C288.685 148.046 288.816 148.144 289.054 148.188C289.293 148.232 289.537 148.314 289.787 148.434C290.189 148.532 290.595 148.669 291.008 148.844C291.409 148.942 291.86 149.112 292.359 149.352C293.27 149.767 294.17 150.377 295.059 151.183C296.013 151.901 296.635 153.016 296.925 154.526C297.075 155.048 297.112 155.586 297.035 156.139C297.034 156.682 297.147 157.209 297.373 157.72C297.754 157.667 298.243 157.559 298.84 157.398C299.438 157.236 299.851 157.139 300.079 157.107C300.535 157.043 301.279 157.094 302.311 157.259C303.331 157.348 304.048 157.48 304.46 157.655C304.786 157.764 305.046 157.96 305.241 158.243C305.501 158.439 305.756 158.597 306.005 158.717L306.199 159.272L305.531 159.482C305.053 159.394 304.576 159.306 304.098 159.218C303.696 159.119 303.268 159.102 302.811 159.166C302.507 159.209 302.17 159.295 301.801 159.425C301.507 159.543 301.181 159.705 300.822 159.911C299.811 160.441 298.924 161.302 298.161 162.495C297.474 163.677 296.841 164.968 296.262 166.368C295.729 166.986 295.331 167.74 295.068 168.63C294.795 169.444 294.397 170.197 293.874 170.891C293.492 171.488 293.078 172.128 292.631 172.811C292.174 173.418 291.749 173.982 291.357 174.502C291.291 174.589 291.226 174.676 291.161 174.762C291.095 174.849 290.997 174.979 290.867 175.153L290.262 175.819C290.066 176.079 289.865 176.302 289.658 176.486C289.451 176.67 289.321 176.843 289.266 177.006C288.95 177.516 288.264 178.155 287.209 178.924C286.154 179.692 284.92 180.021 283.509 179.909C282.575 179.885 281.528 179.334 280.368 178.257C279.22 177.255 278.592 176.374 278.485 175.613C278.239 173.864 278.802 172.079 280.175 170.257C281.537 168.36 283.153 166.621 285.025 165.039C286.897 163.458 288.474 162.267 289.757 161.466C289.964 161.282 290.535 160.93 291.47 160.411C292.471 159.805 293.004 159.459 293.069 159.372C293.396 158.938 293.549 158.374 293.529 157.679C293.585 156.973 293.57 156.316 293.485 155.708C293.249 154.035 292.824 152.66 292.207 151.583C291.666 150.496 290.484 150.081 288.659 150.337C287.594 150.487 286.615 150.973 285.723 151.797C285.103 152.349 284.405 153.455 283.63 155.115C282.855 156.775 282.255 158.023 281.83 158.858C280.008 162.449 278.555 166.181 277.471 170.056C276.463 173.92 275.455 177.784 274.447 181.648C274.381 182.278 274.206 182.69 273.923 182.885C273.945 183.037 273.835 183.634 273.593 184.676C273.428 185.707 273.219 186.706 272.967 187.672C272.802 188.703 272.66 189.344 272.54 189.593L272.458 189.837C272.392 189.924 272.37 190.044 272.392 190.196C272.39 190.739 272.346 191.249 272.258 191.727C272.17 192.204 272.087 192.72 272.01 193.274C271.887 194.609 271.814 196.016 271.789 197.492C271.774 199.045 271.896 200.463 272.154 201.745C272.283 202.115 272.418 202.522 272.558 202.968C272.698 203.413 272.909 203.81 273.191 204.158C273.386 204.441 273.803 204.654 274.444 204.797C275.16 204.929 275.54 205.147 275.582 205.451C275.625 205.755 275.418 205.939 274.962 206.003ZM283.488 174.794C283.836 174.512 284.184 174.231 284.532 173.949C284.87 173.591 285.169 173.239 285.431 172.892L286.035 172.226C287.83 170.655 289.028 169.246 289.628 167.998C290.229 166.751 291.128 165.151 292.327 163.199C292.589 162.852 292.627 162.575 292.443 162.368C292.04 162.813 291.594 163.224 291.105 163.603C290.691 163.972 290.201 164.351 289.636 164.74C289.146 165.119 288.662 165.536 288.183 165.991C287.704 166.446 287.263 166.896 286.861 167.34C286.643 167.448 286.061 167.996 285.114 168.982C284.7 169.35 284.297 169.794 283.905 170.315C283.502 170.759 283.148 171.274 282.843 171.86C282.265 172.717 282.035 173.563 282.153 174.4C282.281 175.312 282.726 175.444 283.488 174.794Z" fill="#2B1205"/>
<path d="M325.948 171.153C323.743 171.463 321.962 171.209 320.607 170.391C319.338 169.639 318.374 168.573 317.714 167.192C317.044 165.735 316.521 164.219 316.145 162.643C315.951 161.817 315.529 161.295 314.877 161.076C314.628 160.956 314.346 160.88 314.031 160.846C313.781 160.726 313.635 160.514 313.592 160.21C313.811 159.559 314.203 159.039 314.769 158.649C315.324 158.183 315.672 157.902 315.813 157.804C315.803 157.728 315.792 157.652 315.781 157.576C315.836 157.413 315.853 157.256 315.831 157.104L316.161 155.312L316.543 152.234C316.653 151.366 316.721 150.465 316.744 149.531C316.834 148.51 316.961 147.484 317.126 146.453C317.281 145.345 317.468 144.194 317.688 143C317.908 141.806 318.193 140.525 318.544 139.158C319.131 138.92 319.413 138.725 319.392 138.573C319.436 138.334 319.35 137.997 319.134 137.563C319.123 137.487 319.074 137.416 318.988 137.35C318.977 137.274 318.966 137.198 318.956 137.122C318.891 136.666 318.974 136.15 319.203 135.575C319.509 134.99 319.776 134.409 320.006 133.834C320.3 133.172 320.606 132.586 320.922 132.077C321.227 131.491 321.413 131.155 321.478 131.068C323.081 128.128 324.782 125.33 326.58 122.674C328.454 120.006 330.794 117.622 333.601 115.522C333.96 115.316 334.243 115.121 334.449 114.937C334.721 114.666 335.042 114.466 335.412 114.337L335.282 114.239C335.434 114.217 335.586 114.196 335.738 114.175C335.879 114.077 336.026 114.018 336.178 113.996C336.787 113.911 337.807 114 339.24 114.264C340.673 114.528 342.008 114.922 343.245 115.446C344.558 115.959 345.273 116.634 345.391 117.471C345.508 118.307 345.228 119.626 344.551 121.428C343.863 123.153 342.973 125.1 341.882 127.27C340.781 129.363 339.603 131.468 338.349 133.582C337.172 135.687 336.038 137.552 334.948 139.179C333.935 140.795 333.166 141.949 332.643 142.643C332.382 142.99 332.115 143.299 331.843 143.57C331.571 143.841 331.304 144.15 331.043 144.497C330.52 145.191 330.002 145.923 329.49 146.692C329.054 147.452 328.536 148.184 327.938 148.888C327.077 149.94 325.967 151.143 324.606 152.497C323.311 153.765 322.233 154.924 321.373 155.976C321.111 156.323 320.92 156.621 320.8 156.871C320.756 157.109 320.642 157.397 320.456 157.733C320.206 158.156 320.09 158.987 320.109 160.225C320.193 161.376 320.316 162.251 320.477 162.848C320.65 163.522 320.963 164.37 321.416 165.392C321.86 166.338 322.444 167.186 323.17 167.937C323.896 168.688 324.715 169 325.628 168.871C326.084 168.807 326.454 168.678 326.736 168.483C327.085 168.201 327.438 167.958 327.797 167.752C329.831 166.226 331.518 164.709 332.857 163.202C334.262 161.609 335.672 159.782 337.089 157.722C337.612 157.028 338.097 156.34 338.544 155.657C339.056 154.887 339.573 154.155 340.096 153.461C340.434 153.103 340.766 152.708 341.093 152.274C341.485 151.753 341.952 151.494 342.495 151.495C342.548 152.418 342.334 153.108 341.855 153.563C341.442 153.931 341.088 154.446 340.793 155.108C340.509 155.846 340.219 156.545 339.925 157.207C339.63 157.869 339.384 158.602 339.187 159.405C339.077 159.73 338.892 160.067 338.63 160.414C338.369 160.76 338.146 161.102 337.96 161.438C336.947 163.054 335.841 164.567 334.643 165.976C333.434 167.309 331.966 168.446 330.237 169.387C329.519 169.798 328.834 170.166 328.182 170.49C327.529 170.814 326.785 171.035 325.948 171.153ZM319.341 153.935L319.455 153.919C323.43 149.095 327.232 144.141 330.86 139.055C334.488 133.97 337.459 128.628 339.774 123.029C339.894 122.78 340.118 122.167 340.446 121.19C340.774 120.213 341.026 119.247 341.202 118.292C341.454 117.326 341.374 116.756 340.962 116.581C340.168 117.003 339.428 117.533 338.743 118.173C338.133 118.801 337.523 119.43 336.914 120.058C336.707 120.242 336.462 120.432 336.18 120.627C335.897 120.821 335.695 121.044 335.575 121.293C335.052 121.987 334.53 122.681 334.007 123.375C333.484 124.069 332.961 124.762 332.438 125.456C331.719 126.41 331.049 127.435 330.427 128.531C329.882 129.615 329.298 130.706 328.677 131.801C327.248 134.328 326.087 136.547 325.192 138.456C324.286 140.289 323.282 142.524 322.179 145.161C322.015 145.649 321.709 146.506 321.261 147.733C320.813 148.959 320.403 150.18 320.031 151.395C319.648 152.535 319.418 153.381 319.341 153.935Z" fill="#2B1205"/>
<path d="M380.657 162.417C379.896 162.524 378.995 162.457 377.953 162.216C376.921 162.05 376.064 161.744 375.381 161.297C373.321 159.881 371.989 158.129 371.386 156.043C370.771 153.88 370.228 151.669 369.755 149.409C369.504 149.832 369.15 150.347 368.693 150.954C368.301 151.474 367.941 151.951 367.614 152.385C367.418 152.645 367.233 152.982 367.058 153.394C366.873 153.73 366.687 154.066 366.502 154.403C366.045 155.01 365.609 155.498 365.196 155.866C364.771 156.158 364.396 156.521 364.069 156.955C363.938 157.128 363.688 157.551 363.317 158.224C363.207 158.549 363.017 158.847 362.745 159.118C362.462 159.313 362.228 159.579 362.042 159.915C361.521 160.066 361.102 160.396 360.786 160.906C360.535 161.329 360.251 161.795 359.935 162.305C359.218 162.716 358.44 163.252 357.602 163.912C356.83 164.486 356.025 164.832 355.189 164.95C354.124 165.099 352.908 164.999 351.54 164.648C350.249 164.287 349.045 163.719 347.928 162.946C346.8 162.096 346.08 161.111 345.768 159.992L345.654 160.008L345.365 157.955C345.194 156.738 345.234 155.918 345.485 155.495C345.605 155.246 345.682 154.964 345.715 154.649C345.737 154.258 345.771 153.943 345.815 153.704L347.091 151.198C347.266 150.786 347.74 150.021 348.514 148.904C349.363 147.777 350.251 146.644 351.177 145.506C352.102 144.368 352.767 143.576 353.169 143.132C353.703 142.514 354.53 141.777 355.651 140.922C356.771 140.067 357.892 139.211 359.012 138.356C360.209 137.49 361.161 136.813 361.868 136.326L362.308 136.148C362.645 135.79 363.211 135.4 364.005 134.979C364.864 134.47 365.478 134.151 365.848 134.022C366.283 133.806 366.995 133.628 367.983 133.489C368.961 133.274 369.711 133.091 370.232 132.94C370.689 132.876 371.058 132.747 371.341 132.552L373.833 132.9C374.68 132.858 375.722 133.099 376.959 133.623C378.196 134.148 378.927 134.937 379.153 135.991C379.38 136.501 379.4 136.925 379.215 137.261L378.108 136.835C377.458 136.074 376.628 135.686 375.618 135.673C374.674 135.573 373.707 135.593 372.719 135.732C370.589 136.031 368.383 136.884 366.099 138.29C363.804 139.621 361.672 141.278 359.702 143.261C357.721 145.168 355.989 147.195 354.507 149.342C353.102 151.478 352.141 153.474 351.627 155.33C351.583 155.569 351.539 155.808 351.495 156.046C351.527 156.275 351.516 156.47 351.461 156.633C351.34 157.425 351.213 158.18 351.081 158.896C351.025 159.602 351.094 160.368 351.288 161.194C351.362 161.726 351.481 162.02 351.644 162.074C351.807 162.129 352.148 162.352 352.669 162.745L353.629 162.959L354.38 162.504L355.244 162.034C355.821 161.72 356.272 161.346 356.599 160.913C356.882 160.718 357.137 160.604 357.365 160.572C357.583 160.464 357.686 160.372 357.676 160.296C358.186 160.069 358.426 159.842 358.394 159.613C358.427 159.299 358.613 158.962 358.95 158.605C359.941 157.38 360.899 156.198 361.825 155.06C362.816 153.835 363.726 152.583 364.554 151.303C365.001 150.62 365.551 149.845 366.205 148.977C366.935 148.099 367.588 147.232 368.166 146.375C368.362 146.115 368.52 145.86 368.64 145.611C368.825 145.274 368.978 144.981 369.098 144.732C369.393 144.07 369.845 143.153 370.456 141.982C371.056 140.734 371.851 140.041 372.839 139.902C372.981 139.805 373.204 139.735 373.508 139.692C374.268 139.585 374.919 139.804 375.461 140.348C375.992 140.816 376.301 141.354 376.386 141.963C376.493 142.723 376.442 143.467 376.234 144.194C376.016 144.845 375.878 145.524 375.823 146.23C375.764 148.022 375.853 149.754 376.088 151.427C376.162 151.959 376.237 152.492 376.312 153.024C376.387 153.556 376.505 154.121 376.667 154.719C377.119 156.284 378.121 157.617 379.671 158.717L380.144 158.767C381.123 158.009 381.76 157.299 382.054 156.637C382.425 155.965 382.927 155.119 383.559 154.099C383.559 154.099 383.63 154.051 383.771 153.953C383.902 153.78 384.005 153.688 384.081 153.677C384.385 153.634 384.559 153.765 384.602 154.069L384.618 154.183C384.66 154.487 384.665 154.797 384.632 155.112C384.588 155.351 384.555 155.665 384.532 156.056C384.584 156.98 384.293 158.222 383.66 159.785C383.103 161.337 382.102 162.214 380.657 162.417Z" fill="#2B1205"/>
<path d="M404.185 159.576C402.74 159.779 401.052 159.628 399.12 159.124C397.199 158.696 395.734 157.933 394.727 156.834C394.358 156.42 394.104 155.991 393.964 155.545C393.824 155.099 393.689 154.692 393.56 154.322C393.27 152.812 393.142 151.628 393.177 150.77C393.2 149.836 393.344 148.924 393.606 148.034C393.869 147.144 394.143 146.059 394.428 144.778C394.472 144.539 394.723 144.116 395.181 143.509C395.638 142.902 396.096 142.295 396.553 141.688C397.076 140.994 397.397 140.522 397.517 140.273C397.834 139.763 398.079 139.302 398.254 138.89C398.504 138.467 398.923 138.136 399.51 137.899C399.652 137.801 399.76 137.747 399.836 137.737C399.989 137.715 400.097 137.661 400.163 137.574C400.371 136.847 400.638 136.267 400.965 135.833C401.357 135.313 401.792 134.825 402.271 134.37C402.674 133.926 403.517 133.303 404.801 132.502C406.16 131.691 407.106 131.248 407.638 131.173C408.018 131.119 408.371 131.147 408.697 131.257C409.099 131.355 409.489 131.378 409.87 131.325L410.196 131.162C410.315 131.456 410.656 131.679 411.221 131.833C411.796 132.062 412.572 132.341 413.548 132.669C414.601 132.986 415.208 133.444 415.37 134.041C415.402 134.269 415.314 134.747 415.106 135.474C414.974 136.191 414.722 136.885 414.352 137.558C414.057 138.22 413.725 138.615 413.355 138.745C413.302 138.364 413.259 138.06 413.227 137.832C413.271 137.593 413.31 137.316 413.343 137.002C413.311 136.773 413.284 136.583 413.263 136.431C413.307 136.192 413.313 135.959 413.281 135.731C413.151 135.361 412.951 135.04 412.68 134.768C412.409 134.496 412.084 134.387 411.703 134.44C410.715 134.579 409.638 135.196 408.474 136.29C407.309 137.384 406.237 138.582 405.256 139.883C404.265 141.108 403.519 142.143 403.017 142.989C402.048 144.366 401.23 145.722 400.565 147.056C399.975 148.38 399.608 149.905 399.463 151.631C399.462 152.175 399.46 152.718 399.459 153.261C399.534 153.793 399.614 154.363 399.7 154.972C399.884 155.178 399.997 155.434 400.04 155.738C400.159 156.032 400.31 156.282 400.494 156.488C400.657 156.543 400.749 156.646 400.771 156.799C400.868 156.94 400.96 157.043 401.047 157.109L401.193 157.321L401.209 157.435L402.122 157.307C402.882 157.2 403.518 157.033 404.029 156.806C404.54 156.579 405.056 156.39 405.578 156.239C405.936 156.034 406.301 155.866 406.67 155.737C407.105 155.521 407.551 155.38 408.007 155.316C408.41 154.872 408.861 154.498 409.362 154.195C409.851 153.816 410.346 153.475 410.846 153.172L410.814 152.944C411.433 152.935 411.977 152.664 412.445 152.133C412.989 151.592 413.474 151.175 413.898 150.882C415.508 149.648 417.042 148.424 418.5 147.211C419.958 145.998 421.324 144.682 422.598 143.262C422.805 143.078 423.278 142.585 424.019 141.783C424.759 140.981 425.205 140.569 425.357 140.548C425.357 140.548 425.423 140.461 425.553 140.287C426.215 140.582 426.573 140.92 426.626 141.3C426.69 141.756 426.526 142.244 426.134 142.765C425.742 143.285 425.372 143.686 425.024 143.968C424.741 144.163 424.463 144.396 424.191 144.666C423.985 144.851 423.778 145.035 423.571 145.219C423.288 145.414 423.011 145.647 422.739 145.918C422.532 146.102 422.368 146.318 422.248 146.568C422.139 146.894 421.986 147.186 421.79 147.447C421.67 147.696 421.425 147.886 421.056 148.015L420.974 148.259C420.484 148.638 420 149.055 419.521 149.51C419.032 149.889 418.547 150.306 418.069 150.761C417.796 151.032 417.584 151.179 417.432 151.2C416.649 151.698 415.849 152.353 415.033 153.166C414.413 153.718 413.874 154.298 413.416 154.905C412.948 155.436 412.301 155.798 411.475 155.992C411.398 156.546 411.061 156.903 410.463 157.065C409.941 157.216 409.501 157.394 409.142 157.6C407.663 158.66 406.01 159.319 404.185 159.576Z" fill="#2B1205"/>
<path d="M445.002 153.025C443.633 153.217 442.113 153.16 440.441 152.852C438.845 152.533 437.402 151.922 436.112 151.017C434.898 150.102 434.108 148.895 433.742 147.396C433.688 147.015 433.635 146.635 433.581 146.255C433.604 145.864 433.556 145.522 433.437 145.228C433.405 145 433.145 144.804 432.656 144.64L432.266 144.346C431.941 144.237 431.61 144.089 431.273 143.904C430.927 143.642 430.726 143.321 430.673 142.941C430.89 142.833 431.075 142.768 431.227 142.747C431.607 142.694 431.955 142.684 432.27 142.717C432.661 142.739 433.008 142.729 433.313 142.687C433.236 142.697 433.253 142.54 433.362 142.214C433.341 142.062 433.358 141.905 433.412 141.742C433.456 141.503 433.511 141.34 433.576 141.254C433.652 141.243 433.729 140.961 433.806 140.407C433.873 139.777 433.939 139.419 434.004 139.332C434.609 135.913 435.664 132.934 437.169 130.396C438.739 127.771 441.078 125.659 444.188 124.059C444.482 123.94 444.742 123.864 444.97 123.832C445.264 123.714 445.563 123.633 445.867 123.59C446.475 123.505 447.306 123.62 448.359 123.938C449.401 124.179 450.35 124.589 451.207 125.166C452.129 125.657 452.676 126.239 452.848 126.913C452.891 127.217 452.928 127.483 452.96 127.711C453.068 127.929 453.144 128.19 453.187 128.494C453.251 128.95 453.211 129.498 453.069 130.139L452.433 130.577C452.323 130.903 452.203 131.152 452.072 131.326L451.5 132.221C450.977 132.914 450.808 133.365 450.992 133.571L450.78 133.718C450.78 133.718 450.785 133.756 450.796 133.832C450.796 133.832 450.758 133.837 450.682 133.848L450.78 133.718L450.682 133.848L450.698 133.962L450.144 134.156C449.872 134.427 449.643 134.73 449.457 135.067C449.261 135.327 449.071 135.625 448.885 135.961C447.916 137.338 446.582 138.612 444.885 139.781C443.178 140.874 441.612 141.869 440.187 142.767C439.969 142.875 439.643 143.038 439.208 143.254C438.839 143.383 438.594 143.573 438.474 143.822C438.223 144.245 438.103 144.766 438.112 145.385C438.122 146.004 438.164 146.58 438.238 147.113C438.519 148.004 438.87 148.846 439.292 149.64C439.789 150.423 440.609 150.734 441.749 150.574L442.776 150.43C443.156 150.376 443.531 150.285 443.901 150.155C444.346 150.015 444.792 149.875 445.237 149.735L445.972 149.166L446.102 149.264C446.537 149.048 447.287 148.594 448.353 147.901C449.419 147.208 450.447 146.521 451.437 145.839C452.416 145.081 453.003 144.572 453.2 144.312L453.298 144.182L453.38 143.938L453.674 143.547C454.904 142.366 456.117 141.343 457.313 140.477C458.499 139.535 459.615 138.37 460.661 136.982L460.921 137.178L461.263 137.13C461.262 137.673 461.131 138.118 460.869 138.465C460.597 138.736 460.298 139.088 459.971 139.522L459.709 140.14C458.999 141.713 457.796 143.356 456.098 145.068C454.475 146.769 452.973 148.221 451.591 149.424C451.102 149.803 450.623 150.258 450.155 150.789C449.676 151.244 449.11 151.633 448.458 151.958C447.219 152.52 446.067 152.875 445.002 153.025ZM439.364 139.393C439.82 139.329 440.124 139.286 440.276 139.265C440.494 139.157 440.787 139.038 441.157 138.909C442.56 137.858 443.828 136.672 444.961 135.35C446.169 134.017 447.302 132.694 448.358 131.383C448.435 130.829 448.751 130.319 449.306 129.853L449.715 129.447C449.845 129.274 449.938 129.105 449.993 128.943C450.123 128.769 450.178 128.606 450.157 128.454C450.222 128.368 450.147 128.107 449.93 127.672L449.736 127.118L449.704 126.889C449.465 126.845 449.156 126.85 448.775 126.904C448.275 127.207 447.791 127.624 447.323 128.155C446.855 128.686 446.322 129.032 445.724 129.194C445.484 129.693 444.923 130.392 444.041 131.291C443.573 131.822 443.105 132.353 442.637 132.885C442.234 133.329 441.967 133.638 441.836 133.811C441.379 134.418 440.85 135.346 440.25 136.593C439.639 137.765 439.344 138.698 439.364 139.393Z" fill="#2B1205"/>
</g>
<g filter="url(#filter1_d_1140_3826)">
<path d="M29.9778 159.299C28.0766 159.567 26.655 159.107 25.7128 157.921C24.7813 156.811 24.2141 155.534 24.011 154.089C23.7972 152.568 23.855 151.048 24.1843 149.528C24.5135 148.009 24.9729 146.587 25.5623 145.263C26.0211 144.113 26.5125 142.92 27.0366 141.683C27.4847 140.457 28.0195 139.296 28.641 138.2C30.1134 135.434 32.1022 132.479 34.6072 129.335C37.1989 126.257 39.6647 123.662 42.0045 121.549C43.1797 120.531 44.6157 119.437 46.3126 118.268C48.0748 117.012 49.6356 115.979 50.995 115.167C52.3437 114.28 53.0181 113.836 53.0181 113.836C53.6704 113.512 54.3068 113.073 54.927 112.521C55.6341 112.034 56.1777 111.763 56.5579 111.71C56.6233 111.623 56.6887 111.537 56.754 111.45C56.8194 111.363 56.8847 111.276 56.9501 111.19C57.3969 110.506 57.6109 109.546 57.592 108.308C57.5731 107.07 57.6623 106.049 57.8596 105.246C57.9582 104.844 58.0349 104.562 58.0896 104.399C58.2096 104.15 58.2375 103.797 58.1734 103.34L58.0772 102.656C58.0238 102.276 58.0137 101.928 58.047 101.613C58.0803 101.298 58.1136 100.984 58.1469 100.669C58.1909 100.43 58.1594 99.9302 58.0526 99.1697C57.5416 99.3966 57.1281 99.765 56.812 100.275C56.5719 100.774 56.2885 101.24 55.9617 101.674C55.3628 102.378 54.8126 103.154 54.3111 104C53.8856 104.835 53.3734 105.605 52.7745 106.309C51.8488 107.448 50.5963 109.019 49.017 111.025C47.4377 113.031 45.7556 114.857 43.9708 116.503C42.1859 118.15 40.5331 119.08 39.0121 119.294C38.0235 119.433 36.8674 119.208 35.5438 118.618C34.2202 118.029 33.2768 117.386 32.7136 116.69L32.6815 116.462C32.6495 116.233 32.5794 116.011 32.4713 115.793C32.3525 115.5 32.2771 115.239 32.245 115.011C32.0419 113.566 32.1597 111.921 32.5983 110.075C33.0369 108.23 33.6056 106.483 34.3044 104.834C35.0032 103.185 35.6848 101.964 36.349 101.173L36.6271 100.669C36.8779 100.246 37.0959 99.8661 37.2813 99.5298C37.5428 99.1829 37.8042 98.836 38.0656 98.489C38.5778 97.7191 39.106 97.0633 39.6503 96.5215C40.2706 95.969 40.999 95.634 41.8355 95.5164C42.1397 95.4737 42.8128 95.5729 43.8548 95.8142C44.8969 96.0555 45.9063 96.3402 46.8829 96.6682C47.8489 96.9202 48.3533 97.1983 48.3961 97.5025C48.5149 97.796 48.3841 97.9694 48.0039 98.0229L47.6617 98.071L47.4175 97.989C47.3415 97.9997 47.2654 98.0103 47.1894 98.021C47.1027 97.9557 46.9832 97.9337 46.8312 97.9551C46.0707 98.0619 45.0969 98.858 43.9097 100.343C42.7879 101.742 41.6762 103.488 40.5746 105.581C39.4622 107.599 38.5727 109.546 37.9059 111.423C37.2285 113.225 36.9539 114.582 37.0822 115.494C37.1356 115.874 37.3144 116.043 37.6186 116C38.3791 115.893 39.1402 115.515 39.9019 114.865C40.7396 114.205 41.436 113.641 41.9909 113.176L42.219 113.144C45.2884 110.153 47.983 107.254 50.3026 104.447C51.5658 102.951 52.829 101.455 54.0922 99.959C55.3554 98.4631 56.6079 96.8912 57.8497 95.2433L58.4379 94.4627L59.0101 93.568C59.3916 92.9715 59.8545 92.4024 60.3987 91.8606C61.1045 91.9165 62.1252 92.0057 63.4607 92.1282C64.8723 92.24 65.6909 92.8229 65.9166 93.8769C65.97 94.2571 65.9474 94.648 65.8488 95.0497C65.8155 95.3645 65.7875 95.7174 65.7649 96.1083C65.7958 96.8795 65.7886 97.656 65.7433 98.4378C65.6981 99.2197 65.6529 100.002 65.6077 100.783C65.5958 101.25 65.5078 101.728 65.3438 102.216C65.2558 102.694 65.1679 103.172 65.0799 103.649C65.0026 104.203 64.9687 104.789 64.9782 105.408C65.0637 106.017 65.0351 106.641 64.8924 107.282C64.8485 107.52 64.7171 107.965 64.4984 108.617C64.2691 109.192 64.1704 109.593 64.2025 109.821C64.2132 109.897 64.3706 109.914 64.6748 109.871C64.9029 109.839 65.093 109.813 65.2451 109.791C65.4626 109.683 65.6093 109.624 65.6854 109.613C67.5105 109.357 69.231 109.735 70.8469 110.749C71.0097 110.803 71.0964 110.869 71.1071 110.945C71.1832 110.934 71.2592 110.923 71.3352 110.913L71.3673 111.141C71.4207 111.521 71.2354 111.857 70.8111 112.15C70.3869 112.442 70.0614 112.333 69.8345 111.822C69.7263 111.604 69.5202 111.517 69.216 111.56C68.9011 111.526 68.6296 111.526 68.4015 111.558C67.641 111.665 66.6138 112.08 65.3197 112.805C64.0911 113.443 63.5789 114.213 63.7832 115.115C63.435 115.396 62.9555 116.123 62.3447 117.295C61.8099 118.455 61.5312 119.231 61.5086 119.622C61.4753 119.937 61.48 120.247 61.5228 120.551C61.5655 120.855 61.4562 121.181 61.1947 121.527C60.9333 121.874 60.7099 122.216 60.5245 122.552C60.4152 122.878 60.4032 123.345 60.4887 123.953C60.0538 124.169 59.6183 124.657 59.1822 125.416C58.746 126.176 58.5981 126.778 58.7382 127.224L58.412 127.386L58.7043 127.81C58.128 128.124 57.8666 128.471 57.92 128.851C57.4851 129.067 57.1583 129.501 56.9396 130.152C56.797 130.792 56.5189 131.297 56.1054 131.665L56.1695 132.121L55.3211 132.706L55.4832 133.032C55.2111 133.303 54.939 133.574 54.6668 133.845C54.4815 134.181 54.2961 134.517 54.1107 134.853C53.8492 135.2 53.6205 135.504 53.4244 135.764C53.3044 136.014 53.179 136.225 53.0483 136.398L53.1124 136.855C52.895 136.963 52.8076 137.169 52.8504 137.473C52.4808 137.603 52.1653 137.841 51.9039 138.188L51.4137 138.838L51.5598 139.05C51.3531 139.235 51.1463 139.419 50.9395 139.603C50.8088 139.776 50.7268 140.021 50.6935 140.335L50.3513 140.384C50.1873 140.872 49.8712 141.382 49.403 141.913C49.0215 142.509 48.6674 143.024 48.3406 143.458L46.7381 146.126C46.2045 146.744 45.5895 147.334 44.8932 147.897C44.2729 148.45 43.7013 149.073 43.1785 149.767C42.9717 149.951 42.7703 150.173 42.5742 150.433C42.4542 150.683 42.2961 150.938 42.1 151.198C41.8386 151.545 41.4577 151.87 40.9575 152.173C40.544 152.541 40.1738 152.942 39.847 153.376C38.7478 154.383 37.2844 155.558 35.4568 156.901C33.5532 158.254 31.7269 159.054 29.9778 159.299ZM32.3326 155.362C32.6914 155.157 33.2244 154.811 33.9314 154.324C34.6491 153.912 35.2854 153.474 35.8404 153.008C36.4713 152.532 36.7708 152.18 36.7387 151.951C37.6419 151.204 38.4149 150.359 39.0578 149.415C39.7874 148.537 40.479 147.665 41.1326 146.797C41.8622 145.919 42.5919 145.041 43.3215 144.163C44.0511 143.285 44.6994 142.38 45.2662 141.447C45.637 140.775 45.9698 140.108 46.2645 139.446C46.6353 138.773 47.0114 138.139 47.3929 137.542C47.8837 136.62 48.4125 135.693 48.9794 134.76C49.633 133.893 50.2052 132.998 50.696 132.076C51.2628 131.143 51.743 130.145 52.1363 129.082C52.6058 128.008 53.0806 126.972 53.5607 125.974C53.8554 125.312 54.1828 124.607 54.5429 123.858C54.979 123.099 55.3011 122.356 55.5091 121.629C55.6291 121.379 55.7058 121.097 55.7391 120.782C55.8591 120.532 55.9738 120.245 56.0832 119.919C56.3125 119.344 56.6186 118.487 57.0013 117.348C57.4493 116.121 57.636 115.242 57.5611 114.71C56.7127 115.294 55.7122 115.9 54.5596 116.528C53.9939 116.917 53.4283 117.307 52.8627 117.697C52.3624 118 52.123 118.227 52.1444 118.379C51.7748 118.509 50.9157 119.017 49.567 119.905C48.2943 120.781 47.027 121.696 45.7651 122.649C44.5031 123.602 43.7087 124.295 43.3819 124.729C42.0867 125.997 40.8401 127.335 39.6423 128.744C38.5205 130.143 37.3987 131.541 36.2769 132.939C36.0155 133.286 35.7921 133.628 35.6067 133.964C35.4213 134.3 35.2412 134.675 35.0665 135.087C35.0119 135.25 34.9138 135.38 34.7724 135.477C34.7177 135.64 34.6631 135.803 34.6084 135.966C34.4777 136.139 34.2323 136.6 33.8722 137.349C33.5121 138.097 33.19 138.84 32.906 139.578C32.6219 140.316 32.4579 140.804 32.4139 141.043C31.8257 141.824 31.1875 143.077 30.4994 144.802C29.8113 146.527 29.3466 147.911 29.1053 148.953L28.5633 150.89C28.3779 151.227 28.3387 151.775 28.4455 152.535C28.4764 153.307 28.5239 153.92 28.588 154.377C28.7602 155.05 29.0852 155.431 29.5628 155.519C30.0512 155.683 30.9744 155.631 32.3326 155.362Z" fill="#2B1205"/>
<path d="M86.2357 118.706C85.4752 118.813 84.8128 118.79 84.2484 118.636C83.7708 118.548 83.3311 118.455 82.9295 118.357C82.68 118.236 82.3871 118.084 82.0509 117.898C81.7907 117.702 81.5085 117.626 81.2043 117.668C81.1069 117.527 80.9281 117.358 80.6679 117.162L80.1635 116.884C79.4043 116.448 78.8571 115.866 78.5221 115.137C78.1871 114.409 77.9501 113.55 77.8112 112.562C77.6295 111.269 77.768 110.047 78.2268 108.897C78.6855 107.747 79.0195 106.537 79.2287 105.267C79.3274 104.865 79.35 104.474 79.2966 104.094C79.2431 103.714 79.2277 103.328 79.2503 102.937C79.3276 102.384 79.4863 101.857 79.7263 101.358C79.9664 100.859 80.2064 100.36 80.4465 99.8611C81.7681 96.5735 83.5173 93.8461 85.6943 91.6789C87.8606 89.4358 90.564 87.4273 93.8044 85.6536C94.1633 85.448 94.7883 85.2051 95.6795 84.9247C96.6467 84.6337 97.3204 84.4615 97.7007 84.408C98.309 84.3225 98.8954 84.3564 99.4598 84.5098C100.014 84.5871 100.567 84.6643 101.121 84.7416C101.284 84.7963 101.446 84.851 101.609 84.9056C101.837 84.8736 102.104 84.8362 102.408 84.7934L102.228 85.1677C102.955 85.3757 103.546 85.7191 104.001 86.198C104.532 86.6662 105.096 87.091 105.692 87.4725L106.847 88.2408C107.194 88.5022 107.443 88.8938 107.594 89.4154C107.81 89.8503 107.94 90.2198 107.982 90.524C108.284 91.5673 108.352 92.6046 108.187 93.636C108.087 94.5806 107.906 95.4979 107.643 96.3879C107.294 97.2124 106.912 98.0804 106.497 98.9917C106.072 99.827 105.608 100.668 105.107 101.514C104.681 102.349 104.256 103.184 103.83 104.019C103.405 104.855 102.898 105.663 102.31 106.443C102.179 106.617 101.852 107.05 101.329 107.744C100.796 108.362 100.268 109.018 99.7447 109.712C99.2979 110.395 99.0471 110.818 98.9924 110.981C98.3401 111.305 97.8178 111.728 97.4257 112.248L96.8374 113.029C95.661 114.59 94.0562 115.862 92.0231 116.846C89.99 117.83 88.0608 118.45 86.2357 118.706ZM86.5015 116.459C86.5668 116.372 86.6756 116.318 86.8276 116.296L87.8062 115.81C88.165 115.604 88.4912 115.442 88.7847 115.323C89.1543 115.194 89.3717 115.086 89.4371 114.999C89.7199 114.804 90.2748 114.339 91.1019 113.602C92.005 112.855 92.8267 112.08 93.567 111.278C94.3073 110.476 94.6181 109.928 94.4993 109.635C94.9996 109.332 95.5605 108.633 96.182 107.537C96.8796 106.431 97.4904 105.259 98.0145 104.023C98.6147 102.775 98.9968 101.907 99.1608 101.419C99.2594 101.017 99.3634 100.653 99.4728 100.328C99.5821 100.002 99.7675 99.6661 100.029 99.3191C99.9755 98.9389 100.003 98.586 100.113 98.2605C100.298 97.9242 100.375 97.642 100.343 97.4139C100.473 97.2404 100.517 97.0016 100.475 96.6974C100.497 96.3065 100.536 96.0296 100.591 95.8668C100.657 95.2371 100.718 94.8408 100.773 94.678L100.642 94.58C100.697 94.4172 100.714 94.2598 100.692 94.1077C100.736 93.8689 100.791 93.7061 100.856 93.6193L100.808 93.2771C100.755 92.8969 100.745 92.5494 100.778 92.2345C100.801 91.8436 100.747 91.4633 100.618 91.0938C100.727 90.7682 100.766 90.4914 100.734 90.2632C100.702 90.0351 100.632 89.8123 100.523 89.5948C100.491 89.3667 100.421 89.1439 100.313 88.9264L100.411 88.7963C100.239 88.1226 99.9307 87.5843 99.4863 87.1815C99.042 86.7786 98.5156 86.62 97.9072 86.7055C96.0061 86.9727 94.4025 87.7021 93.0966 88.8938C91.7906 90.0854 90.5387 91.3858 89.3409 92.795C88.862 93.25 88.4211 93.6997 88.0183 94.1441C87.6915 94.5777 87.3754 95.0875 87.07 95.6732C87.0806 95.7493 87.0533 95.8307 86.988 95.9174C87.1187 95.7439 87.3308 95.5978 87.6243 95.479C88.2339 94.8505 89.071 94.4614 90.1357 94.3118C90.5159 94.2583 91.3245 94.4937 92.5613 95.0178C93.7982 95.5419 94.4594 96.1081 94.5449 96.7165L94.6251 97.2869C94.0607 97.1335 93.7351 97.0242 93.6484 96.9588L93.1601 96.7948C92.8345 96.6855 92.4816 96.6575 92.1014 96.711C90.8846 96.882 89.672 97.634 88.4635 98.9671C87.331 100.289 86.4213 101.542 85.7344 102.724C85.2876 103.407 84.8788 104.085 84.508 104.758C84.1265 105.354 84.0433 106.141 84.2583 107.119C84.6706 107.294 84.9955 107.675 85.2331 108.262C85.0157 108.37 84.7929 108.44 84.5647 108.472C84.1845 108.525 83.7776 108.389 83.3439 108.062C83.1585 108.398 83.0272 108.843 82.9499 109.397C82.8726 109.95 82.7846 110.428 82.686 110.83L82.5059 111.204C82.5487 111.508 82.5534 111.818 82.5201 112.133C82.5629 112.437 82.6436 112.736 82.7624 113.029C82.9988 114.159 83.3986 115.072 83.9617 115.769C84.5142 116.389 85.3608 116.619 86.5015 116.459Z" fill="#2B1205"/>
<path d="M123.537 111.835C122.092 112.038 120.882 111.704 119.906 110.833C118.996 109.876 118.45 108.75 118.269 107.457C118.023 105.708 118.092 103.721 118.478 101.496C118.852 99.1941 119.242 97.2781 119.647 95.7477C119.725 95.194 119.889 94.7057 120.139 94.2827C120.379 93.7837 120.457 93.2299 120.371 92.6216C120.567 92.3614 120.737 91.911 120.879 91.2706C121.098 90.6195 121.224 90.1365 121.257 89.8216C120.985 90.0925 120.653 90.4882 120.261 91.0086C119.869 91.529 119.493 91.8919 119.134 92.0975L118.776 92.0315C118.505 91.7594 118.457 91.4172 118.632 91.0049C118.762 90.8314 118.92 90.5765 119.106 90.2403C119.357 89.8173 119.613 89.4323 119.874 89.0854C120.125 88.6624 120.343 88.2828 120.528 87.9466C120.79 87.5996 120.948 87.3448 121.003 87.182C121.449 86.4988 121.803 85.9837 122.065 85.6368C122.316 85.2138 122.784 84.6827 123.47 84.0435C123.86 84.0661 124.49 84.1327 125.359 84.2433C126.293 84.2671 127.205 84.4104 128.095 84.6731C128.974 84.8597 129.451 85.2191 129.526 85.7515C129.666 86.1971 129.463 86.9623 128.918 88.0471C128.438 89.0451 127.881 90.0539 127.249 91.0733C126.693 92.0821 126.3 92.874 126.071 93.449C125.656 94.3604 125.339 95.1416 125.121 95.7927C124.902 96.4438 124.716 97.0516 124.563 97.616L123.543 101.947C123.346 102.75 123.214 103.467 123.147 104.096C123.08 104.726 123.03 105.47 122.995 106.328C123.006 106.404 122.989 106.561 122.945 106.8C122.967 106.952 122.988 107.104 123.01 107.256C123.052 107.561 123.133 107.859 123.252 108.153C123.447 108.436 123.696 108.556 124 108.513C124.305 108.47 124.691 108.183 125.159 107.652C126.585 106.211 127.745 104.807 128.638 103.441C129.161 102.747 129.646 102.059 130.093 101.375C130.54 100.692 131.052 99.9223 131.63 99.0656C133.046 97.0054 134.468 94.9831 135.895 92.9989C137.388 90.928 138.766 88.8731 140.031 86.8342C140.347 86.3245 140.685 85.6954 141.045 84.9468C141.394 84.1222 141.835 83.6725 142.368 83.5977L142.482 83.5817C142.938 83.5175 143.806 83.6281 145.087 83.9134C146.358 84.1226 147.025 84.4554 147.089 84.9117L147.153 85.3679C147.249 86.0524 147.145 86.6875 146.839 87.2732C146.654 87.6095 146.501 87.9024 146.381 88.1519C146.261 88.4014 146.152 88.7269 146.053 89.1286C146.041 89.5955 145.98 89.9918 145.871 90.3174C145.762 90.6429 145.625 91.0499 145.461 91.5382C144.937 92.7751 144.515 94.4629 144.195 96.6017C143.875 98.7405 143.844 100.451 144.102 101.733C144.155 102.113 144.284 102.754 144.489 103.656C144.758 104.471 145.056 104.934 145.381 105.043C146.131 104.86 146.67 104.28 146.998 103.303C147.402 102.316 147.757 101.53 148.062 100.944C148.368 100.358 148.787 100.028 149.319 99.9529C149.427 100.17 149.508 100.469 149.561 100.849C149.604 101.154 149.571 101.468 149.461 101.794C149.352 102.12 149.248 102.483 149.149 102.885C149.061 103.362 148.974 103.84 148.886 104.318C148.863 104.709 148.726 105.116 148.476 105.539C148.137 106.439 147.359 106.975 146.142 107.146C144.393 107.392 142.727 107.122 141.143 106.336C139.635 105.54 138.709 104.468 138.365 103.121C138.085 101.687 138.008 100.03 138.132 98.1518C138.331 96.2626 138.607 94.6341 138.957 93.2665C138.946 93.1905 138.936 93.1144 138.925 93.0384C138.99 92.9517 139.018 92.8703 139.007 92.7942C138.615 93.3146 138.266 93.8677 137.961 94.4535C137.655 95.0392 137.22 95.527 136.654 95.9167L135.756 96.9735C135.198 98.5253 134.43 99.9516 133.449 101.253C132.469 102.554 131.532 103.887 130.638 105.254C129.82 106.609 128.851 107.986 127.729 109.385C126.683 110.773 125.286 111.589 123.537 111.835Z" fill="#2B1205"/>
<path d="M161.692 107.636C161.16 107.711 160.568 107.639 159.917 107.42C159.266 107.202 158.789 106.842 158.486 106.342L158.52 105.755C158.645 103.334 159.009 100.956 159.611 98.6227C160.214 96.2891 160.74 93.9662 161.191 91.654C161.564 89.8954 161.96 87.746 162.378 85.2056C162.797 82.6653 162.873 80.4445 162.605 78.5433C162.573 78.3152 162.541 78.087 162.509 77.8589C162.466 77.5547 162.391 77.2939 162.283 77.0764C161.751 77.1513 161.267 77.2968 160.832 77.513C160.386 77.6532 159.897 77.7607 159.365 77.8355L159.251 77.8515C158.871 77.9049 158.649 77.7035 158.585 77.2472C158.552 77.0191 158.667 76.7316 158.929 76.3846C159.19 76.0377 159.625 75.8215 160.233 75.736C160.472 75.78 161.124 75.7271 162.189 75.5775C162.797 75.492 163.639 75.4125 164.714 75.3389C165.779 75.1893 166.783 75.1644 167.728 75.2643C168.749 75.3535 169.389 75.7676 169.647 76.5067C169.788 76.9523 169.682 77.8589 169.332 79.2265C169.047 80.5074 168.701 81.913 168.296 83.4434C167.815 84.9845 167.366 86.4822 166.95 87.9365C166.807 88.577 166.665 89.2174 166.522 89.8578C166.369 90.4222 166.319 90.8945 166.372 91.2748L166.388 91.3888L166.568 91.0146C166.928 90.266 167.294 89.5555 167.665 88.883C168.111 88.1998 168.449 87.5707 168.679 86.9956C168.995 86.4859 169.469 85.7213 170.101 84.7019C170.799 83.5957 171.491 82.4515 172.178 81.2693C172.941 80.0764 173.666 78.8888 174.353 77.7066C175.116 76.5137 175.802 75.603 176.412 74.9745C176.542 74.801 176.668 74.5895 176.788 74.34C176.984 74.0798 177.19 73.8956 177.408 73.7875C177.625 73.6794 177.924 73.5986 178.304 73.5452C178.75 73.405 179.391 73.2762 180.228 73.1586C180.456 73.1265 180.689 73.1325 180.928 73.1765C181.156 73.1444 181.346 73.1177 181.498 73.0963C181.803 73.0536 182.481 73.1909 183.534 73.5082C184.576 73.7495 185.629 74.0668 186.692 74.4602C187.755 74.8536 188.314 75.2404 188.367 75.6207C188.55 76.3704 188.364 76.9782 187.809 77.4439C187.32 77.8229 186.917 78.2673 186.601 78.777C186.165 79.5362 185.739 80.3715 185.324 81.2829C184.975 82.1074 184.707 82.9594 184.52 83.8386L184.388 84.5551C184.127 84.9021 183.882 85.0916 183.654 85.1236C183.198 85.1877 183.008 84.943 183.086 84.3893C182.979 83.6288 182.959 82.9337 183.025 82.3039C183.081 81.5981 183.11 80.9737 183.111 80.4307C183.177 79.801 183.173 79.2199 183.098 78.6876C183.089 78.0685 182.998 77.4221 182.826 76.7484C182.794 76.5203 182.702 76.4169 182.55 76.4383C181.865 76.5345 181.262 76.9295 180.739 77.6234C180.216 78.3172 179.796 78.919 179.48 79.4288L178.86 79.9812C178.555 80.567 177.994 81.2662 177.177 82.0789L175.234 83.9805C174.756 84.4355 174.102 85.3028 173.274 86.5825C172.435 87.7861 171.792 88.7295 171.345 89.4127C171.356 89.4887 171.095 89.5641 170.563 89.639L170.448 89.655L170.35 89.7851L170.382 90.0132C170.567 90.22 170.528 90.4968 170.267 90.8438C169.896 91.5163 169.242 92.6551 168.304 94.2603C167.366 95.8655 166.467 97.4654 165.605 99.0599C164.733 100.578 164.263 101.652 164.197 102.282C164.01 103.161 163.851 103.959 163.719 104.676C163.663 105.382 163.743 106.223 163.958 107.201C163.415 107.2 163.029 107.216 162.801 107.248C162.659 107.345 162.551 107.399 162.475 107.41C162.257 107.518 161.996 107.593 161.692 107.636Z" fill="#2B1205"/>
<path d="M218.132 129.832C216.535 130.056 214.988 129.808 213.491 129.088C211.918 128.379 210.453 127.615 209.098 126.797C208.501 126.416 208.03 125.823 207.684 125.019C207.263 124.225 206.976 123.567 206.826 123.045C206.696 122.676 206.561 122.268 206.421 121.823C206.281 121.377 206.141 120.932 206.001 120.486C205.979 120.334 205.952 120.144 205.92 119.916C205.823 119.774 205.758 119.589 205.726 119.361C205.63 118.677 205.648 117.976 205.78 117.26L205.83 116.788C205.918 116.31 205.956 116.033 205.946 115.957C205.924 115.805 205.865 115.658 205.767 115.517C205.67 115.375 205.562 115.158 205.443 114.864C205.629 114.528 205.727 114.127 205.739 113.66C205.762 113.269 205.79 112.916 205.823 112.601C205.9 112.047 205.94 111.499 205.941 110.956C205.877 110.5 205.845 110 205.846 109.457C205.924 108.903 206.077 108.339 206.306 107.764C206.47 107.275 206.553 106.76 206.554 106.217C206.577 105.826 206.599 105.435 206.622 105.044C206.579 104.74 206.575 104.43 206.608 104.115C206.915 102.987 207.118 101.95 207.218 101.005C207.242 100.071 207.369 99.0453 207.599 97.9272L207.209 97.6331C206.374 97.2077 205.881 96.4626 205.732 95.398C205.582 94.3333 206.078 93.4493 207.22 92.746C208.286 92.0533 209.178 91.5015 209.896 91.0904C210.548 90.7661 210.972 90.4738 211.168 90.2136C211.244 90.2029 211.365 89.6819 211.53 88.6506C211.685 87.5432 211.746 86.8754 211.714 86.6472C211.942 86.6152 212.073 86.4417 212.106 86.1268C212.205 85.7252 212.222 85.2963 212.158 84.84C212.17 84.373 212.274 84.0095 212.47 83.7493L212.276 83.1949L212.488 83.0488L212.31 82.6085C213.103 82.1868 213.501 81.4329 213.504 80.3469C213.572 79.1741 213.791 78.2515 214.162 77.579C214.347 77.2427 214.538 76.9445 214.734 76.6843C214.93 76.4241 215.083 76.1312 215.192 75.8057C215.301 75.4801 215.351 75.2793 215.34 75.2032L215.406 74.845C215.505 74.4434 215.679 74.0311 215.93 73.6081C216.246 73.0984 216.497 72.6754 216.682 72.3392L216.666 72.2251L216.748 71.9809C217.01 71.634 217.168 71.3791 217.223 71.2163C217.277 71.0536 217.37 70.8854 217.501 70.712L217.469 70.4838L217.665 70.2236L217.975 69.9474L217.943 69.7193L218.155 69.5731L218.123 69.345L218.369 68.6125C218.51 68.515 218.57 68.3903 218.549 68.2382L218.859 67.962L218.973 67.9459C219.038 67.8592 219.055 67.7018 219.023 67.4736L219.137 67.4576L219.561 67.1653C219.627 67.0786 219.763 66.9431 219.969 66.759L219.905 66.3027L220.444 65.9944L220.542 65.8643L220.494 65.5221L220.804 65.2459C220.869 65.1591 220.967 65.029 221.098 64.8556C221.229 64.6821 221.251 64.5627 221.164 64.4973C221.219 64.3345 221.567 63.7814 222.21 62.8381C222.929 61.884 223.681 60.8865 224.465 59.8457C225.249 58.8049 225.74 58.1544 225.936 57.8942C226.034 57.4926 226.182 57.1617 226.378 56.9015C226.574 56.6413 226.813 56.4138 227.096 56.2189L227.292 55.9587L227.162 55.8607C227.521 55.6551 227.766 55.4656 227.896 55.2922C228.027 55.1187 228.223 54.8585 228.485 54.5116C228.855 53.8391 229.188 53.4434 229.481 53.3246C229.656 52.9123 230.004 52.6307 230.526 52.4799C231.037 52.253 231.596 52.0968 232.205 52.0113C233.421 51.8403 234.431 51.8534 235.235 52.0507C236.462 51.9558 237.623 52.2191 238.719 52.8406C239.814 53.4621 240.6 54.3599 241.075 55.5339L240.112 56.1344C239.799 55.5581 239.452 55.2967 239.072 55.3501L238.387 55.4463C238.3 55.381 238.181 55.359 238.029 55.3803C237.116 55.5086 236.149 56.0711 235.125 57.068C234.092 57.9887 233.106 58.9802 232.17 60.0424C231.234 61.1046 230.303 61.9333 229.379 62.5285C228.757 63.624 227.919 64.5561 226.864 65.3248C226.722 65.4222 226.335 65.9806 225.703 67.0001C225.071 68.0195 224.444 69.077 223.823 70.1724C223.19 71.1919 222.82 71.8644 222.71 72.1899C222.797 72.2553 222.818 72.4074 222.774 72.6462L222.448 72.8084C222.219 73.3835 221.946 73.9259 221.63 74.4356C221.39 74.9346 221.068 75.4063 220.666 75.8507C220.666 75.8507 220.763 75.9921 220.958 76.2749C220.654 76.3176 220.469 76.3824 220.404 76.4691C220.328 76.4798 220.29 76.4851 220.29 76.4851C220.017 76.756 219.761 77.141 219.521 77.64C219.347 78.0523 219.21 78.4593 219.111 78.8609C218.86 79.2839 218.648 79.7015 218.473 80.1138C218.298 80.5261 218.075 80.8677 217.803 81.1386L217.965 81.4648C217.279 82.104 216.805 82.8685 216.542 83.7585C216.28 84.6485 216.131 85.5224 216.097 86.3803C216.118 86.5324 216.063 86.6951 215.933 86.8686L215.655 87.373C215.524 87.5464 215.442 87.7906 215.409 88.1055C215.365 88.3443 215.533 88.437 215.913 88.3836C216.065 88.3622 216.217 88.3408 216.369 88.3195C216.511 88.222 216.657 88.1626 216.809 88.1413L217.088 87.6369C217.261 87.7676 217.424 87.8223 217.576 87.8009C218.184 87.7154 218.847 87.4671 219.565 87.056L220.021 86.9919C220.554 86.9171 221.043 86.8096 221.488 86.6694C221.934 86.5293 222.423 86.4218 222.955 86.347C223.39 86.1307 223.825 85.9145 224.26 85.6983C224.684 85.406 225.119 85.1898 225.564 85.0496C225.858 84.9308 226.521 84.6826 227.554 84.3048C228.652 83.8403 229.266 83.5213 229.397 83.3478C229.994 83.1863 230.587 82.9867 231.174 82.7491C231.837 82.5008 232.429 82.3013 232.951 82.1504C233.255 82.1077 233.521 82.0703 233.749 82.0382C233.977 82.0061 234.238 81.9307 234.532 81.8119C234.684 81.7905 234.83 81.7311 234.972 81.6337C235.113 81.5363 235.26 81.4769 235.412 81.4555L235.396 81.3414C235.928 81.2666 236.385 81.2025 236.765 81.1491C237.134 81.0196 237.471 80.9335 237.776 80.8907L237.972 80.6305L238.2 80.5984C238.352 80.5771 238.596 80.6591 238.932 80.8445C239.334 80.9431 239.561 81.1826 239.615 81.5628L239.273 81.6109C238.979 81.7297 238.61 81.8592 238.164 81.9993C237.794 82.1288 237.425 82.2583 237.055 82.3878C236.686 82.5173 236.316 82.6468 235.947 82.7763C235.653 82.8951 235.571 83.1392 235.701 83.5088L234.886 83.5069C234.581 84.0927 234.048 84.439 233.287 84.5459C233.015 84.8168 232.738 85.0496 232.455 85.2445C232.172 85.4393 231.889 85.6342 231.607 85.829C230.834 86.4029 230.507 86.8365 230.626 87.13C230.658 87.3582 230.929 87.6303 231.439 87.9464C231.938 88.1865 232.274 88.3719 232.448 88.5026C233.488 89.2869 234.632 90.2506 235.878 91.3938C237.201 92.5263 238.034 93.7662 238.379 95.1137C238.464 95.7221 238.468 96.3031 238.391 96.8568C238.4 97.4759 238.41 98.0949 238.419 98.714L238.483 99.1703C238.526 99.4745 238.569 99.7787 238.612 100.083C238.73 100.376 238.855 100.708 238.984 101.077L238.642 101.126C238.38 101.472 238.146 102.009 237.938 102.737C237.806 103.453 237.815 104.072 237.966 104.594L237.738 104.626C237.346 105.146 237.301 105.928 237.602 106.971L237.26 107.02L237.308 107.362L236.884 107.654C236.796 108.132 236.654 108.501 236.458 108.761C236.501 109.065 236.44 109.461 236.276 109.95C236.112 110.438 235.851 110.785 235.492 110.99C235.458 111.305 235.36 111.707 235.196 112.195C235.108 112.673 234.922 113.009 234.64 113.204C234.574 113.291 234.509 113.377 234.443 113.464C234.465 113.616 234.448 113.774 234.394 113.936L233.967 115.043C233.673 115.705 233.497 116.389 233.441 117.095L232.203 117.385C232.072 117.559 232.012 117.683 232.023 117.759L232.169 117.971C232.288 118.265 232.26 118.618 232.085 119.03C231.682 119.475 231.366 119.984 231.137 120.559C230.907 121.134 230.635 121.677 230.318 122.187C230.122 122.447 229.883 122.674 229.6 122.869L229.29 123.145C229.159 123.319 229.056 123.411 228.98 123.422C227.782 124.831 226.226 126.174 224.312 127.451C222.397 128.728 220.337 129.522 218.132 129.832ZM217.829 126.85C218.21 126.796 218.546 126.71 218.84 126.591C219.22 126.538 219.6 126.485 219.981 126.431C221.057 125.815 221.764 125.327 222.102 124.97C222.243 124.872 222.445 124.65 222.706 124.303C222.837 124.13 222.967 123.956 223.098 123.783C223.229 123.609 223.43 123.387 223.702 123.116L223.85 122.514C224.384 121.896 224.765 121.3 224.995 120.725C225.311 120.215 225.66 119.662 226.041 119.065C226.237 118.805 226.395 118.55 226.515 118.301C226.722 118.117 226.842 117.867 226.875 117.552C227.061 117.216 227.17 116.89 227.203 116.576C227.454 116.153 227.667 115.735 227.842 115.323C228.103 114.976 228.321 114.596 228.496 114.184C229.151 112.773 229.648 111.346 229.988 109.903C230.404 108.448 230.901 107.021 231.48 105.622L231.416 105.165C231.384 104.937 231.357 104.747 231.336 104.595C231.39 104.432 231.445 104.27 231.5 104.107L231.762 103.488C232.002 102.989 232.167 102.229 232.256 101.209C232.421 100.177 232.505 99.1187 232.507 98.0327C232.597 97.012 232.642 96.2301 232.643 95.6871C232.622 95.535 232.633 95.3396 232.677 95.1008C232.71 94.7859 232.76 94.5851 232.825 94.4983L232.777 94.1561C232.908 93.9827 232.891 93.8686 232.729 93.8139L231.399 90.9764C230.967 90.1065 230.203 89.3609 229.107 88.7393C228.001 88.0418 226.987 87.7191 226.063 87.7713L222.377 89.6852C222.094 89.8801 221.812 90.0749 221.529 90.2697C221.246 90.4646 220.925 90.6648 220.566 90.8703C220.208 91.0758 219.773 91.2921 219.262 91.519C218.816 91.6591 218.414 91.832 218.055 92.0375C217.761 92.1563 217.517 92.3458 217.321 92.606C217.114 92.7902 216.907 92.9743 216.7 93.1585C215.776 93.7537 215.036 94.2842 214.481 94.7499C213.926 95.2157 213.616 95.7634 213.549 96.3931C213.461 96.8708 213.454 97.3758 213.529 97.9081C213.551 98.0602 213.577 98.2503 213.609 98.4785C213.717 98.6959 213.711 98.9294 213.591 99.1789C213.405 100.058 213.142 100.948 212.803 101.849C212.541 102.739 212.354 103.618 212.244 104.487C212.112 105.203 212.029 105.719 211.996 106.034C211.973 106.425 211.977 107.006 212.008 107.777L211.744 109.21C211.448 110.415 211.315 111.674 211.345 112.988C211.309 114.389 211.382 115.736 211.563 117.029C211.617 117.409 211.676 117.827 211.74 118.283C211.804 118.74 211.901 119.153 212.03 119.522C212.224 120.348 212.558 121.348 213.033 122.522C213.519 123.772 214.174 124.843 214.997 125.736C215.821 126.628 216.765 126.999 217.829 126.85Z" fill="#2B1205"/>
<path d="M284.412 89.1094C283.652 89.2163 282.75 89.1491 281.708 88.9078C280.677 88.7425 279.82 88.4365 279.136 87.9897C277.076 86.5732 275.744 84.8216 275.141 82.7351C274.527 80.5725 273.983 78.3611 273.511 76.1011C273.26 76.5241 272.906 77.0392 272.448 77.6463C272.056 78.1667 271.697 78.6437 271.37 79.0774C271.174 79.3376 270.988 79.6739 270.814 80.0862C270.628 80.4224 270.443 80.7587 270.257 81.0949C269.8 81.7021 269.364 82.1898 268.951 82.5581C268.527 82.8504 268.151 83.2133 267.824 83.647C267.694 83.8205 267.443 84.2435 267.072 84.916C266.963 85.2415 266.772 85.5397 266.5 85.8106C266.217 86.0055 265.983 86.271 265.798 86.6073C265.276 86.7581 264.857 87.0884 264.541 87.5981C264.29 88.0211 264.007 88.4875 263.691 88.9972C262.973 89.4083 262.195 89.9441 261.358 90.6047C260.585 91.1785 259.781 91.5242 258.944 91.6418C257.88 91.7914 256.663 91.6909 255.296 91.3403C254.004 90.9789 252.8 90.4115 251.683 89.6378C250.556 88.7882 249.836 87.8037 249.523 86.6844L249.409 86.7004L249.121 84.6471C248.95 83.4304 248.989 82.6105 249.24 82.1875C249.36 81.938 249.437 81.6558 249.47 81.3409C249.493 80.95 249.526 80.6352 249.57 80.3963L250.846 77.8905C251.021 77.4782 251.495 76.7136 252.269 75.5967C253.119 74.4692 254.006 73.3363 254.932 72.1981C255.858 71.0598 256.522 70.2685 256.925 69.8242C257.458 69.2064 258.285 68.4697 259.406 67.6143C260.527 66.7589 261.647 65.9035 262.768 65.048C263.964 64.1819 264.916 63.5053 265.623 63.0182L266.063 62.84C266.401 62.4824 266.967 62.0927 267.76 61.671C268.619 61.1625 269.234 60.8435 269.603 60.714C270.038 60.4978 270.75 60.3202 271.739 60.1813C272.716 59.9663 273.466 59.7833 273.988 59.6325C274.444 59.5684 274.814 59.4389 275.096 59.244L277.588 59.5918C278.435 59.5503 279.477 59.7916 280.714 60.3157C281.951 60.8398 282.682 61.6288 282.908 62.6828C283.135 63.1937 283.156 63.6173 282.97 63.9536L281.864 63.5275C281.214 62.7658 280.384 62.3784 279.374 62.3652C278.429 62.2653 277.463 62.2849 276.474 62.4238C274.345 62.7231 272.138 63.576 269.854 64.9827C267.56 66.3133 265.427 67.9701 263.457 69.9531C261.476 71.86 259.745 73.8869 258.263 76.0339C256.857 78.1702 255.897 80.1663 255.382 82.0223C255.338 82.2611 255.294 82.4999 255.25 82.7388C255.282 82.9669 255.271 83.1624 255.216 83.3251C255.095 84.1177 254.968 84.8722 254.836 85.5887C254.781 86.2945 254.849 87.0603 255.043 87.8861C255.118 88.4184 255.237 88.7119 255.399 88.7666C255.562 88.8213 255.904 89.0447 256.424 89.4368L257.385 89.6508L258.135 89.1964L259 88.7259C259.576 88.4123 260.028 88.0386 260.354 87.6049C260.637 87.4101 260.893 87.2966 261.121 87.2646C261.338 87.1565 261.442 87.0644 261.431 86.9883C261.942 86.7614 262.181 86.5339 262.149 86.3058C262.183 85.9909 262.368 85.6546 262.705 85.297C263.696 84.072 264.655 82.8904 265.581 81.7522C266.572 80.5272 267.481 79.2749 268.31 77.9953C268.756 77.3121 269.307 76.5368 269.96 75.6695C270.69 74.7915 271.343 73.9241 271.921 73.0675C272.117 72.8073 272.275 72.5524 272.395 72.3029C272.581 71.9666 272.733 71.6738 272.853 71.4242C273.148 70.7624 273.601 69.8458 274.212 68.6742C274.812 67.4267 275.606 66.7334 276.595 66.5945C276.736 66.497 276.959 66.427 277.263 66.3842C278.024 66.2773 278.675 66.496 279.217 67.0403C279.748 67.5085 280.056 68.0467 280.141 68.6551C280.248 69.4156 280.198 70.1594 279.99 70.8866C279.771 71.5377 279.634 72.2162 279.578 72.922C279.52 74.7138 279.608 76.4462 279.843 78.1192C279.918 78.6516 279.993 79.1839 280.067 79.7162C280.142 80.2485 280.26 80.8135 280.422 81.4112C280.875 82.9761 281.876 84.3088 283.427 85.4092L283.899 85.4592C284.878 84.7012 285.515 83.9913 285.81 83.3295C286.181 82.657 286.682 81.811 287.314 80.7915C287.314 80.7915 287.385 80.7428 287.526 80.6454C287.657 80.4719 287.761 80.3799 287.837 80.3692C288.141 80.3264 288.314 80.4572 288.357 80.7613L288.373 80.8754C288.416 81.1796 288.42 81.4891 288.387 81.804C288.343 82.0428 288.31 82.3577 288.287 82.7486C288.34 83.6719 288.049 84.9147 287.415 86.4772C286.858 88.0289 285.857 88.9063 284.412 89.1094Z" fill="#2B1205"/>
<path d="M299.774 88.579C298.709 88.7286 297.847 88.3845 297.186 87.5468C296.612 86.7744 296.272 86.008 296.165 85.2475C295.919 83.4984 295.907 81.7553 296.128 80.0182C296.338 78.205 296.478 76.4405 296.547 74.7247C296.626 73.628 296.628 72.5419 296.555 71.4666C296.557 70.3806 296.522 69.2999 296.448 68.2246C296.449 67.6815 296.456 67.1765 296.468 66.7096C296.469 66.1666 296.47 65.6236 296.471 65.0805L296.343 64.168C296.226 63.3315 295.999 62.8205 295.662 62.6351C295.326 62.4497 294.588 62.4372 293.447 62.5975C293.067 62.651 292.79 62.6123 292.616 62.4816C292.53 62.4162 292.486 62.3836 292.486 62.3836C292.476 62.3075 292.47 62.2695 292.47 62.2695C292.428 61.9653 292.51 61.7211 292.716 61.537C292.999 61.3421 293.249 61.1906 293.467 61.0825L295.112 61.2003L295.324 61.0542C295.791 61.0661 296.291 61.0347 296.823 60.9598C297.421 60.7983 297.986 60.6801 298.518 60.6053C299.354 60.4877 300.163 60.7231 300.944 61.3113C301.714 61.8235 302.157 62.4978 302.275 63.3343C302.339 63.7906 302.327 64.2576 302.239 64.7352C302.216 65.1262 302.199 65.5551 302.187 66.0221C302.198 66.0981 302.252 66.2069 302.349 66.3483L302.381 66.5764C302.608 67.0873 302.558 67.8312 302.23 68.8079C301.891 69.7085 301.688 70.4737 301.622 71.1034C301.61 71.5704 301.598 72.0374 301.586 72.5043C301.64 72.8846 301.617 73.2755 301.518 73.6771C301.42 74.0787 301.364 74.513 301.352 74.98C301.34 75.4469 301.291 75.9193 301.203 76.3969C301.005 77.2001 300.911 78.1828 300.919 79.3448C300.962 79.649 300.983 79.8011 300.983 79.8011C301.059 79.7904 301.124 79.7037 301.179 79.5409C301.474 78.8791 301.725 78.1846 301.933 77.4574C302.141 76.7303 302.398 76.0738 302.703 75.488C303.946 73.2971 305.271 71.1334 306.677 68.9971C308.159 66.8502 309.689 64.7739 311.268 62.7683C312.336 61.5326 313.37 60.3404 314.372 59.1914C315.374 58.0425 316.598 57.095 318.044 56.3489C318.696 56.0246 319.326 55.8197 319.935 55.7342C321.608 55.4991 322.932 55.817 323.907 56.6881C324.362 57.1669 324.617 57.5965 324.67 57.9767C324.713 58.2809 324.582 58.4544 324.278 58.4971C324.126 58.5185 323.719 58.3818 323.057 58.0871C322.721 57.9017 322.287 57.8464 321.754 57.9212C321.298 57.9854 320.88 58.0442 320.5 58.0976C319.663 58.2152 318.586 58.8318 317.27 59.9474C316.998 60.2183 316.726 60.4892 316.453 60.7601C316.247 60.9442 316.127 61.1937 316.093 61.5086C315.572 61.6595 315.256 61.8977 315.147 62.2232C315.038 62.5488 314.819 62.9284 314.493 63.3621L313.742 63.8165L311.617 66.9069L311.503 66.9229L311.682 67.3632C311.301 67.4166 311.046 67.5301 310.915 67.7035C310.502 68.0718 310.18 68.5435 309.951 69.1186C309.711 69.6176 309.427 70.084 309.101 70.5177L308.806 70.908C308.545 71.2549 308.327 71.6345 308.152 72.0468C308.054 72.4484 307.922 72.8934 307.758 73.3818L306.828 74.2105L306.99 74.5366C306.718 74.8075 306.598 75.057 306.63 75.2852C306.172 75.8923 305.605 76.825 304.929 78.0833C304.253 79.3416 303.92 80.2802 303.929 80.8993C303.429 81.2022 302.933 81.8147 302.443 82.7367C302.028 83.6481 301.694 84.5867 301.442 85.5527C301.18 86.4427 301.08 87.1158 301.145 87.5721C301.111 87.8869 300.948 88.1038 300.654 88.2226C300.372 88.4174 300.078 88.5362 299.774 88.579Z" fill="#2B1205"/>
<path d="M334.81 83.7712C334.05 83.8781 333.387 83.8549 332.823 83.7016C332.345 83.6136 331.906 83.5203 331.504 83.4216C331.255 83.3016 330.962 83.1489 330.625 82.9635C330.365 82.7674 330.083 82.6908 329.779 82.7335C329.681 82.5921 329.503 82.4234 329.242 82.2273L328.738 81.9492C327.979 81.5131 327.432 80.9308 327.097 80.2024C326.762 79.474 326.525 78.6155 326.386 77.6269C326.204 76.3341 326.343 75.1126 326.801 73.9625C327.26 72.8123 327.594 71.6021 327.803 70.3319C327.902 69.9303 327.925 69.5394 327.871 69.1592C327.818 68.7789 327.802 68.3934 327.825 68.0025C327.902 67.4487 328.061 66.9224 328.301 66.4234C328.541 65.9243 328.781 65.4253 329.021 64.9263C330.343 61.6386 332.092 58.9112 334.269 56.744C336.435 54.5009 339.139 52.4924 342.379 50.7187C342.738 50.5132 343.363 50.2702 344.254 49.9899C345.221 49.6988 345.895 49.5266 346.275 49.4732C346.884 49.3877 347.47 49.4216 348.034 49.5749C348.588 49.6522 349.142 49.7295 349.696 49.8067C349.858 49.8614 350.021 49.9161 350.184 49.9707C350.412 49.9387 350.678 49.9013 350.982 49.8585L350.802 50.2328C351.529 50.4408 352.121 50.7842 352.576 51.2631C353.107 51.7313 353.67 52.1562 354.267 52.5376L355.422 53.3059C355.769 53.5673 356.018 53.9589 356.169 54.4805C356.385 54.9154 356.514 55.285 356.557 55.5892C356.859 56.6324 356.927 57.6698 356.762 58.7011C356.662 59.6457 356.481 60.563 356.218 61.453C355.868 62.2776 355.486 63.1455 355.072 64.0569C354.646 64.8921 354.183 65.7328 353.681 66.5787C353.256 67.414 352.83 68.2493 352.405 69.0846C351.979 69.9198 351.473 70.7278 350.884 71.5084C350.754 71.6819 350.427 72.1155 349.904 72.8094C349.37 73.4273 348.842 74.0831 348.319 74.777C347.872 75.4602 347.622 75.8831 347.567 76.0459C346.915 76.3703 346.392 76.7926 346 77.313L345.412 78.0936C344.236 79.6549 342.631 80.9273 340.598 81.911C338.565 82.8946 336.635 83.5147 334.81 83.7712ZM335.076 81.5238C335.141 81.437 335.25 81.383 335.402 81.3616L336.381 80.8751C336.74 80.6696 337.066 80.5074 337.359 80.3886C337.729 80.2591 337.946 80.151 338.012 80.0643C338.294 79.8694 338.849 79.4037 339.676 78.6671C340.58 77.9198 341.401 77.1451 342.142 76.3431C342.882 75.5411 343.193 74.9934 343.074 74.6999C343.574 74.3969 344.135 73.6977 344.757 72.6022C345.454 71.4961 346.065 70.3245 346.589 69.0877C347.189 67.8401 347.571 66.9721 347.735 66.4838C347.834 66.0822 347.938 65.7186 348.047 65.393C348.157 65.0675 348.342 64.7312 348.604 64.3843C348.55 64.004 348.578 63.6511 348.687 63.3256C348.873 62.9893 348.949 62.7071 348.917 62.479C349.048 62.3055 349.092 62.0667 349.049 61.7625C349.072 61.3716 349.111 61.0947 349.165 60.932C349.232 60.3022 349.292 59.9059 349.347 59.7432L349.217 59.6451C349.272 59.4823 349.288 59.3249 349.267 59.1728C349.311 58.934 349.366 58.7712 349.431 58.6845L349.383 58.3423C349.329 57.962 349.319 57.6145 349.353 57.2996C349.375 56.9087 349.322 56.5284 349.192 56.1589C349.302 55.8333 349.34 55.5565 349.308 55.3283C349.276 55.1002 349.206 54.8774 349.098 54.66C349.066 54.4318 348.996 54.209 348.888 53.9916L348.986 53.8615C348.814 53.1877 348.505 52.6494 348.061 52.2466C347.617 51.8438 347.09 51.6851 346.482 51.7706C344.581 52.0378 342.977 52.7672 341.671 53.9589C340.365 55.1506 339.113 56.451 337.915 57.8601C337.437 58.3151 336.996 58.7648 336.593 59.2092C336.266 59.6429 335.95 60.1526 335.645 60.7383C335.655 60.8144 335.628 60.8958 335.563 60.9825C335.693 60.8091 335.905 60.6629 336.199 60.5441C336.808 59.9156 337.646 59.5265 338.71 59.3769C339.09 59.3235 339.899 59.5588 341.136 60.0829C342.373 60.607 343.034 61.1733 343.12 61.7816L343.2 62.352C342.635 62.1986 342.31 62.0893 342.223 62.0239L341.735 61.8599C341.409 61.7506 341.056 61.7226 340.676 61.7761C339.459 61.9471 338.247 62.6991 337.038 64.0322C335.906 65.3546 334.996 66.6069 334.309 67.7891C333.862 68.4723 333.453 69.1501 333.083 69.8226C332.701 70.4191 332.618 71.2063 332.833 72.1842C333.245 72.3589 333.57 72.7397 333.808 73.3267C333.59 73.4349 333.367 73.5049 333.139 73.537C332.759 73.5904 332.352 73.4538 331.918 73.127C331.733 73.4632 331.602 73.9082 331.524 74.4619C331.447 75.0156 331.359 75.4933 331.261 75.8949L331.081 76.2691C331.123 76.5733 331.128 76.8828 331.095 77.1977C331.137 77.5019 331.218 77.8008 331.337 78.0943C331.573 79.2243 331.973 80.1374 332.536 80.8338C333.089 81.4541 333.935 81.6841 335.076 81.5238Z" fill="#2B1205"/>
<path d="M370.561 78.2816C370.028 78.3564 369.437 78.2845 368.785 78.0658C368.134 77.8471 367.657 77.4876 367.354 76.9873L367.388 76.401C367.513 73.9794 367.877 71.6018 368.48 69.2682C369.082 66.9346 369.609 64.6117 370.059 62.2994C370.433 60.5409 370.828 58.3915 371.247 55.8511C371.665 53.3107 371.741 51.09 371.474 49.1888C371.442 48.9606 371.41 48.7325 371.378 48.5044C371.335 48.2002 371.259 47.9394 371.151 47.7219C370.619 47.7967 370.135 47.9422 369.7 48.1585C369.255 48.2986 368.766 48.4061 368.234 48.4809L368.119 48.497C367.739 48.5504 367.517 48.349 367.453 47.8927C367.421 47.6646 367.536 47.377 367.797 47.0301C368.058 46.6832 368.493 46.4669 369.102 46.3814C369.341 46.4254 369.992 46.3726 371.057 46.223C371.665 46.1375 372.507 46.0579 373.583 45.9843C374.647 45.8347 375.652 45.8098 376.596 45.9097C377.617 45.9989 378.257 46.4131 378.516 47.1522C378.656 47.5978 378.551 48.5044 378.2 49.872C377.915 51.1528 377.57 52.5585 377.164 54.0889C376.683 55.6299 376.234 57.1276 375.818 58.582C375.676 59.2224 375.533 59.8629 375.39 60.5033C375.237 61.0677 375.187 61.54 375.241 61.9202L375.257 62.0343L375.437 61.66C375.797 60.9115 376.162 60.201 376.533 59.5285C376.98 58.8453 377.318 58.2161 377.547 57.6411C377.863 57.1313 378.337 56.3668 378.97 55.3473C379.667 54.2412 380.36 53.097 381.046 51.9147C381.809 50.7218 382.534 49.5343 383.221 48.3521C383.984 47.1592 384.67 46.2485 385.28 45.6199C385.411 45.4465 385.536 45.235 385.656 44.9855C385.852 44.7253 386.059 44.5411 386.276 44.433C386.494 44.3249 386.793 44.2441 387.173 44.1907C387.618 44.0505 388.259 43.9216 389.096 43.8041C389.324 43.772 389.558 43.778 389.796 43.8219C390.025 43.7899 390.215 43.7632 390.367 43.7418C390.671 43.699 391.349 43.8363 392.402 44.1537C393.444 44.395 394.497 44.7123 395.56 45.1057C396.624 45.4991 397.182 45.8859 397.236 46.2661C397.419 47.0159 397.233 47.6237 396.678 48.0894C396.188 48.4684 395.785 48.9128 395.469 49.4225C395.033 50.1817 394.608 51.017 394.193 51.9283C393.843 52.7529 393.575 53.6048 393.389 54.4841L393.257 55.2006C392.995 55.5475 392.751 55.737 392.522 55.7691C392.066 55.8332 391.877 55.5884 391.954 55.0347C391.847 54.2743 391.827 53.5791 391.894 52.9494C391.949 52.2436 391.978 51.6192 391.979 51.0762C392.046 50.4464 392.042 49.8654 391.967 49.3331C391.957 48.714 391.867 48.0676 391.694 47.3939C391.662 47.1657 391.57 47.0623 391.418 47.0837C390.734 47.1799 390.13 47.5749 389.607 48.2688C389.084 48.9627 388.665 49.5645 388.349 50.0742L387.728 50.6267C387.423 51.2124 386.862 51.9117 386.046 52.7243L384.103 54.6259C383.624 55.081 382.97 55.9483 382.142 57.2279C381.303 58.4315 380.66 59.3749 380.213 60.0581C380.224 60.1342 379.963 60.2096 379.431 60.2844L379.317 60.3004L379.219 60.4305L379.251 60.6587C379.435 60.8655 379.396 61.1423 379.135 61.4892C378.764 62.1617 378.11 63.3006 377.172 64.9058C376.235 66.511 375.335 68.1109 374.473 69.7054C373.601 71.2238 373.132 72.2979 373.065 72.9277C372.879 73.807 372.719 74.6048 372.587 75.3213C372.531 76.0271 372.611 76.869 372.826 77.8469C372.283 77.8456 371.897 77.8611 371.669 77.8931C371.528 77.9905 371.419 78.0446 371.343 78.0553C371.126 78.1634 370.865 78.2388 370.561 78.2816Z" fill="#2B1205"/>
<path d="M417.63 40.957C416.87 41.0639 415.947 41.1161 414.861 41.1137C413.764 41.0352 413.097 40.4309 412.861 39.3009C412.84 39.1488 413.052 38.7311 413.499 38.048C414.022 37.3541 414.545 36.6602 415.068 35.9663C415.667 35.2618 416.032 34.8228 416.162 34.6493C416.369 34.4651 416.843 33.9721 417.583 33.1701C418.399 32.3574 418.992 32.1578 419.36 32.5714C419.447 32.6367 419.56 33.1637 419.698 34.1523L419.923 35.7493C419.944 35.9014 419.89 36.0642 419.759 36.2376C419.683 36.2483 419.503 36.3511 419.221 36.5459C419.003 36.654 418.9 36.7461 418.91 36.8222L419.041 36.9202C419.203 36.9749 419.339 37.1109 419.447 37.3284C419.631 37.5352 419.696 37.7199 419.641 37.8827C419.412 38.4578 419.117 39.1196 418.757 39.8681C418.386 40.5406 418.011 40.9036 417.63 40.957ZM411.158 71.878C410.854 71.9208 410.191 71.8976 409.171 71.8084C408.226 71.7085 407.591 71.6039 407.265 71.4945C406.43 71.0691 405.834 70.6876 405.476 70.3501C405.118 70.0126 404.854 69.2355 404.683 68.0188C404.373 65.8134 404.563 63.5766 405.252 61.3084C406.007 58.9534 406.664 56.7285 407.222 54.6337C407.353 54.4603 407.337 54.3462 407.174 54.2915L407.142 54.0634C406.807 53.335 406.874 52.4337 407.344 51.3596C407.802 50.2095 408.386 49.1193 409.094 48.0892C409.803 47.0591 410.363 46.3599 410.777 45.9915C411.157 45.9381 411.852 45.918 412.862 45.9311C413.862 45.8682 414.834 45.8867 415.778 45.9866C416.723 46.0865 417.232 46.4026 417.307 46.9349C417.318 47.011 417.231 47.2171 417.045 47.5534C416.86 47.8896 416.642 48.2692 416.391 48.6922L415.623 49.8471C415.361 50.1941 415.236 50.4055 415.247 50.4816C414.733 51.7945 414.029 53.4057 413.134 55.3151C412.239 57.2245 411.426 59.1612 410.694 61.1252C410.18 62.4382 409.776 63.6971 409.48 64.9019C409.249 66.02 409.192 66.9973 409.31 67.8338C409.406 68.5182 409.628 68.9911 409.975 69.2526C410.79 68.9829 411.59 68.3277 412.374 67.2869C413.234 66.2354 413.915 65.2866 414.417 64.4407L414.987 64.3605C415.094 65.121 414.919 65.8048 414.461 66.4119L414.167 66.8022C413.883 67.5401 413.522 68.5601 413.085 69.8624C412.713 71.0779 412.071 71.7498 411.158 71.878Z" fill="#2B1205"/>
<path d="M439.478 75.11C438.946 75.1848 438.148 75.0255 437.084 74.6321C436.108 74.3041 435.408 74.0147 434.985 73.7639C433.51 72.6528 432.591 70.8045 432.228 68.2189C431.961 66.3177 431.954 64.3411 432.209 62.2891C432.453 60.161 432.794 58.1744 433.232 56.3291C433.66 54.4078 434.033 52.9208 434.35 51.868C434.47 51.6185 434.58 51.293 434.678 50.8914C434.766 50.4137 434.925 49.8873 435.154 49.3123C435.406 48.3463 435.74 47.4076 436.155 46.4963L434.736 47.161L434.165 47.2411C433.469 47.8043 432.681 48.264 431.8 48.6204C430.985 48.8901 430.175 49.1978 429.371 49.5435C428.49 49.8999 427.664 50.365 426.891 50.9388C426.108 51.4366 425.325 51.9344 424.542 52.4322C424.553 52.5083 424.444 52.5623 424.216 52.5944C423.836 52.6478 423.467 52.5058 423.109 52.1683C422.741 51.7548 422.535 51.3959 422.493 51.0918C422.461 50.8636 422.879 50.5333 423.749 50.1009C424.532 49.6031 425.506 49.0786 426.669 48.5273C427.897 47.8894 429.023 47.3435 430.045 46.8897C431.132 46.3491 431.86 46.0141 432.23 45.8846C432.817 45.647 433.328 45.4201 433.763 45.2039C434.198 44.9877 434.633 44.7714 435.067 44.5552L435.051 44.4412L435.508 44.377C436.116 44.2915 436.556 44.1133 436.828 43.8424C437.299 42.2253 438.086 40.0985 439.189 37.4619C440.281 34.7493 441.568 32.3195 443.05 30.1725C443.377 29.7389 443.503 29.2559 443.428 28.7235C443.429 28.1805 443.588 27.6542 443.904 27.1444C444.427 26.4506 444.852 25.8868 445.178 25.4531C445.581 25.0088 446.131 24.505 446.827 23.9418C447.294 23.9538 448.092 24.1131 449.221 24.4197C450.35 24.7264 451.408 25.0817 452.395 25.4858C453.458 25.8792 454.022 26.304 454.086 26.7603C454.118 26.9884 453.797 27.4601 453.122 28.1754C452.436 28.8146 451.713 29.4591 450.951 30.109C450.189 30.7589 449.672 31.2193 449.4 31.4902L448.634 31.8306C447.828 32.7193 447.104 33.6353 446.461 34.5787C445.818 35.5221 445.132 36.4328 444.402 37.3109C444.01 37.8313 443.705 38.417 443.486 39.0682C443.333 39.6325 443.06 40.1749 442.668 40.6953L442.748 41.2657C442.541 41.4498 442.378 41.6667 442.258 41.9162C444.289 41.4755 445.897 41.3271 447.081 41.471C448.329 41.5282 449.637 42.0035 451.003 42.8972C451.177 43.0279 451.28 43.2073 451.312 43.4355C451.344 43.6636 451.246 43.7937 451.018 43.8258L450.561 43.8899L450.545 43.7758L450.447 43.906C448.558 43.7062 446.777 43.7239 445.104 43.959C444.419 44.0552 443.778 44.184 443.181 44.3456C442.583 44.5071 442.061 44.658 441.616 44.7982C441.616 44.7982 441.436 45.1724 441.076 45.921C440.705 46.5935 440.339 47.304 439.979 48.0526C439.608 48.7251 439.434 49.1373 439.455 49.2894C439.335 49.539 439.106 50.114 438.767 51.0147C438.504 51.9046 438.247 52.8326 437.995 53.7986C437.831 54.2869 437.667 54.7753 437.503 55.2636C437.404 55.6652 437.3 56.0288 437.191 56.3544L436.765 57.4612C436.84 57.9935 436.806 58.5799 436.663 59.2203C436.586 59.774 436.503 60.2897 436.415 60.7674L436.301 60.7834L436.333 61.0115C436.397 61.4678 436.353 61.9781 436.2 62.5425C436.112 63.0202 436.018 63.4598 435.92 63.8614C435.785 65.6639 435.825 67.3257 436.039 68.8466C436.092 69.2268 436.145 69.6071 436.199 69.9873C436.252 70.3675 436.344 70.7424 436.473 71.112C436.7 71.6229 436.916 72.0578 437.122 72.4167C437.404 72.7648 437.789 73.0209 438.277 73.185C438.505 73.1529 438.7 73.1642 438.863 73.2189L439.792 73.2047C440.726 73.2285 441.214 73.3925 441.257 73.6967C441.332 74.2291 441.108 74.5706 440.587 74.7215C440.152 74.9377 439.782 75.0672 439.478 75.11Z" fill="#2B1205"/>
<path d="M469.819 62.7032C468.45 62.8956 466.929 62.8379 465.258 62.53C463.662 62.2114 462.219 61.6 460.929 60.6956C459.714 59.7806 458.924 58.5733 458.558 57.0737C458.505 56.6935 458.451 56.3133 458.398 55.933C458.421 55.5421 458.373 55.1999 458.254 54.9064C458.222 54.6783 457.961 54.4822 457.473 54.3182L457.083 54.0241C456.757 53.9147 456.426 53.7674 456.09 53.582C455.743 53.3205 455.543 52.9997 455.49 52.6195C455.707 52.5114 455.892 52.4466 456.044 52.4252C456.424 52.3718 456.772 52.3617 457.087 52.395C457.477 52.4176 457.825 52.4076 458.129 52.3648C458.053 52.3755 458.07 52.2181 458.179 51.8925C458.158 51.7404 458.174 51.583 458.229 51.4202C458.273 51.1814 458.328 51.0186 458.393 50.9318C458.469 50.9212 458.546 50.639 458.623 50.0853C458.69 49.4555 458.756 49.0973 458.821 49.0105C459.426 45.5909 460.481 42.6121 461.985 40.0742C463.555 37.4496 465.895 35.3371 469.005 33.7369C469.298 33.6181 469.559 33.5426 469.787 33.5106C470.081 33.3918 470.38 33.311 470.684 33.2682C471.292 33.1827 472.123 33.2987 473.175 33.616C474.217 33.8573 475.167 34.2667 476.023 34.8443C476.945 35.3351 477.493 35.9173 477.665 36.5911C477.708 36.8953 477.745 37.1614 477.777 37.3896C477.885 37.607 477.961 37.8678 478.003 38.172C478.067 38.6283 478.028 39.1767 477.886 39.8171L477.249 40.2555C477.14 40.5811 477.02 40.8306 476.889 41.004L476.317 41.8987C475.794 42.5926 475.625 43.0429 475.809 43.2497L475.597 43.3958C475.597 43.3958 475.602 43.4338 475.613 43.5099C475.613 43.5099 475.575 43.5152 475.499 43.5259L475.597 43.3958L475.499 43.5259L475.515 43.64L474.96 43.8342C474.688 44.1051 474.459 44.4087 474.274 44.7449C474.078 45.0051 473.887 45.3034 473.702 45.6396C472.732 47.0167 471.399 48.2897 469.702 49.4588C467.994 50.5518 466.428 51.5474 465.004 52.4456C464.786 52.5537 464.46 52.7159 464.025 52.9321C463.656 53.0616 463.411 53.2511 463.291 53.5006C463.04 53.9236 462.919 54.4446 462.929 55.0636C462.938 55.6827 462.98 56.2584 463.055 56.7907C463.336 57.6819 463.687 58.5244 464.108 59.3181C464.606 60.1012 465.425 60.4126 466.566 60.2523L467.593 60.108C467.973 60.0546 468.348 59.9631 468.717 59.8336C469.163 59.6934 469.609 59.5533 470.054 59.4131L470.789 58.8446L470.919 58.9426C471.354 58.7264 472.104 58.272 473.17 57.5793C474.236 56.8867 475.264 56.1994 476.253 55.5175C477.233 54.7595 477.82 54.2503 478.016 53.9901L478.114 53.86L478.196 53.6159L478.49 53.2256C479.72 52.0446 480.934 51.021 482.13 50.1549C483.316 49.2128 484.432 48.0478 485.478 46.6601L485.738 46.8561L486.08 46.808C486.079 47.3511 485.947 47.796 485.686 48.143C485.414 48.4139 485.114 48.7661 484.788 49.1998L484.526 49.8183C483.816 51.3914 482.612 53.034 480.914 54.7461C479.292 56.4475 477.79 57.8994 476.408 59.1017C475.919 59.4807 475.44 59.9358 474.971 60.4669C474.493 60.9219 473.927 61.3116 473.275 61.6359C472.035 62.1978 470.883 62.5536 469.819 62.7032ZM464.18 49.0716C464.637 49.0074 464.941 48.9647 465.093 48.9433C465.31 48.8352 465.604 48.7164 465.974 48.5869C467.377 47.5367 468.645 46.3503 469.777 45.0279C470.986 43.6949 472.118 42.3725 473.175 41.0608C473.252 40.5071 473.568 39.9974 474.123 39.5316L474.531 39.1253C474.662 38.9518 474.755 38.7837 474.809 38.6209C474.94 38.4474 474.995 38.2847 474.973 38.1326C475.039 38.0458 474.963 37.785 474.747 37.3501L474.553 36.7958L474.521 36.5676C474.282 36.5237 473.972 36.5284 473.592 36.5818C473.092 36.8848 472.608 37.3018 472.139 37.8329C471.671 38.364 471.138 38.7103 470.541 38.8719C470.301 39.3709 469.74 40.0701 468.858 40.9695C468.39 41.5006 467.922 42.0317 467.453 42.5628C467.051 43.0072 466.784 43.3161 466.653 43.4895C466.195 44.0967 465.667 45.024 465.066 46.2716C464.456 47.4431 464.16 48.3765 464.18 49.0716Z" fill="#2B1205"/>
</g>
<defs>
<filter id="filter0_d_1140_3826" x="240.176" y="90.1359" width="244.916" height="139.715" filterUnits="userSpaceOnUse" color-interpolation-filters="sRGB">
<feFlood flood-opacity="0" result="BackgroundImageFix"/>
<feColorMatrix in="SourceAlpha" type="matrix" values="0 0 0 0 0 0 0 0 0 0 0 0 0 0 0 0 0 0 127 0" result="hardAlpha"/>
<feOffset/>
<feGaussianBlur stdDeviation="11.9145"/>
<feComposite in2="hardAlpha" operator="out"/>
<feColorMatrix type="matrix" values="0 0 0 0 1 0 0 0 0 1 0 0 0 0 1 0 0 0 0.24 0"/>
<feBlend mode="normal" in2="BackgroundImageFix" result="effect1_dropShadow_1140_3826"/>
<feBlend mode="normal" in="SourceGraphic" in2="effect1_dropShadow_1140_3826" result="shape"/>
</filter>
<filter id="filter1_d_1140_3826" x="0.0558128" y="0.112926" width="509.853" height="183.089" filterUnits="userSpaceOnUse" color-interpolation-filters="sRGB">
<feFlood flood-opacity="0" result="BackgroundImageFix"/>
<feColorMatrix in="SourceAlpha" type="matrix" values="0 0 0 0 0 0 0 0 0 0 0 0 0 0 0 0 0 0 127 0" result="hardAlpha"/>
<feOffset/>
<feGaussianBlur stdDeviation="11.9145"/>
<feComposite in2="hardAlpha" operator="out"/>
<feColorMatrix type="matrix" values="0 0 0 0 1 0 0 0 0 1 0 0 0 0 1 0 0 0 0.24 0"/>
<feBlend mode="normal" in2="BackgroundImageFix" result="effect1_dropShadow_1140_3826"/>
<feBlend mode="normal" in="SourceGraphic" in2="effect1_dropShadow_1140_3826" result="shape"/>
</filter>
</defs>
</svg>
