<svg width="153" height="56" viewBox="0 0 153 56" fill="none" xmlns="http://www.w3.org/2000/svg">
<path d="M4.56489 55.8792C4.03257 55.954 3.35411 55.8167 2.52951 55.4673C1.78097 55.1072 1.32592 54.6283 1.16437 54.0306C0.88526 52.5964 0.867583 50.8153 1.11134 48.6872C1.42046 46.4724 1.87099 44.1601 2.46292 41.7505C3.05485 39.3408 3.70618 37.0779 4.4169 34.9618C5.11694 32.7696 5.71833 30.979 6.22106 29.59C6.49442 28.7761 6.69707 28.0109 6.82902 27.2944C7.02633 26.4912 7.34305 25.71 7.77919 24.9508C8.38757 24.8653 9.16941 24.9105 10.1247 25.0864C11.1561 25.2517 12.0841 25.509 12.9086 25.8584C13.8093 26.1971 14.3024 26.6706 14.3879 27.279C14.484 27.9634 14.1727 28.7827 13.4537 29.7368C12.8001 30.6041 12.2826 31.336 11.9011 31.9325C10.5607 33.982 9.19818 36.151 7.81372 38.4394C6.49462 40.641 5.53911 42.9467 4.94718 45.3563C4.79385 45.9207 4.67855 46.4798 4.60127 47.0335C4.60004 47.5765 4.47939 48.0975 4.23933 48.5966C4.19534 48.8354 4.11334 49.0796 3.99331 49.3291C3.87328 49.5786 3.83464 49.8554 3.87739 50.1596L3.93966 51.4304C4.45185 50.6605 5.24746 49.4242 6.3265 47.7216C7.48159 46.0083 8.70203 44.2082 9.98784 42.3215C11.339 40.348 12.6082 38.6186 13.7953 37.1334C14.9825 35.6483 15.8315 34.7922 16.3425 34.5653C16.6253 34.3705 16.9188 34.2517 17.223 34.2089C18.5918 34.0165 19.9487 34.2911 21.2937 35.0327C22.7041 35.6875 23.5274 36.5799 23.7638 37.7099C23.8065 38.0141 23.8 38.5191 23.7441 39.2249C23.7642 39.92 23.763 40.463 23.7404 40.854C23.7712 41.6251 23.7747 42.4777 23.7508 43.4116C23.7924 44.2588 23.8773 45.1387 24.0055 46.0512C24.1979 47.4201 24.5917 48.5667 25.1869 49.4912C25.7714 50.3397 26.6721 50.6784 27.8888 50.5074C28.1716 50.3125 28.4978 50.1504 28.8674 50.0209C29.3023 49.8047 29.6718 49.6752 29.976 49.6324C30.3562 49.579 30.6545 49.7697 30.8707 50.2046C30.9348 50.6609 30.7221 51.0785 30.2325 51.4575C29.7429 51.8365 29.308 52.0528 28.9278 52.1062L27.4449 52.3146C26.9125 52.3894 26.4182 52.4589 25.962 52.523C25.495 52.5111 25.0227 52.4612 24.545 52.3732C23.7632 52.328 22.9926 52.0873 22.2334 51.6512C21.4742 51.215 20.835 50.5294 20.3158 49.5942C19.7753 48.5069 19.2941 47.5664 18.8724 46.7727C18.5266 45.9682 18.2683 44.9576 18.0973 43.7409L17.6484 40.5469C17.5736 40.0146 17.5041 39.5203 17.44 39.064C17.4519 38.597 17.4038 38.2548 17.2957 38.0374C16.6434 38.3617 16.0011 39.0336 15.3689 40.053C14.7366 41.0725 14.2298 41.8804 13.8483 42.4768C13.5869 42.8238 13.3475 43.0513 13.13 43.1594L12.8359 43.5497C12.5745 43.8967 12.2583 44.4064 11.8876 45.0789C11.5061 45.6753 11.152 46.1904 10.8252 46.6241C10.6291 46.8843 10.4604 47.0631 10.319 47.1605L9.81273 47.6969L9.12646 48.6076C8.78774 49.5083 8.36229 50.3436 7.85011 51.1135C7.40328 51.7967 6.97249 52.5939 6.55772 53.5053C6.42701 53.6787 6.36699 53.8035 6.37768 53.8795L6.21367 54.3679C6.03896 54.7802 5.85357 55.1164 5.6575 55.3766C5.46142 55.6368 5.09722 55.8043 4.56489 55.8792Z" fill="#2B1205"/>
<path d="M49.5181 51.7715C48.1493 51.9639 46.6289 51.9062 44.9571 51.5983C43.3614 51.2797 41.9184 50.6682 40.628 49.7639C39.4138 48.8489 38.6237 47.6416 38.2578 46.142C38.2044 45.7618 38.151 45.3816 38.0975 45.0013C38.1201 44.6104 38.072 44.2682 37.9532 43.9747C37.9212 43.7465 37.661 43.5505 37.1726 43.3865L36.7823 43.0923C36.4568 42.983 36.1259 42.8356 35.7896 42.6502C35.4427 42.3888 35.2425 42.068 35.1891 41.6877C35.4065 41.5796 35.5913 41.5149 35.7434 41.4935C36.1236 41.4401 36.4712 41.43 36.786 41.4633C37.177 41.4859 37.5245 41.4758 37.8287 41.4331C37.7526 41.4438 37.7693 41.2863 37.8786 40.9608C37.8573 40.8087 37.8739 40.6512 37.9286 40.4885C37.9726 40.2496 38.0272 40.0869 38.0926 40.0001C38.1686 39.9894 38.2453 39.7072 38.3226 39.1535C38.3892 38.5238 38.4552 38.1655 38.5205 38.0788C39.1256 34.6592 40.1804 31.6804 41.6849 29.1425C43.2547 26.5179 45.5945 24.4054 48.7042 22.8051C48.9977 22.6863 49.2585 22.6109 49.4866 22.5789C49.7801 22.4601 50.079 22.3793 50.3832 22.3365C50.9915 22.251 51.8221 22.3669 52.8748 22.6843C53.9169 22.9256 54.8662 23.335 55.7229 23.9125C56.6449 24.4034 57.192 24.9856 57.3643 25.6594C57.407 25.9635 57.4444 26.2297 57.4765 26.4578C57.5846 26.6753 57.66 26.9361 57.7028 27.2403C57.7669 27.6966 57.7276 28.2449 57.585 28.8854L56.9487 29.3238C56.8393 29.6493 56.7193 29.8989 56.5886 30.0723L56.0164 30.967C55.4935 31.6609 55.3242 32.1112 55.5083 32.318L55.2962 32.4641C55.2962 32.4641 55.3015 32.5021 55.3122 32.5782C55.3122 32.5782 55.2742 32.5835 55.1982 32.5942L55.2962 32.4641L55.1982 32.5942L55.2142 32.7083L54.6599 32.9025C54.3878 33.1734 54.159 33.477 53.9736 33.8132C53.7775 34.0734 53.5868 34.3716 53.4014 34.7079C52.4317 36.0849 51.0984 37.358 49.4016 38.5271C47.694 39.6201 46.1279 40.6157 44.7031 41.5139C44.4857 41.622 44.1595 41.7841 43.7246 42.0004C43.355 42.1298 43.1102 42.3193 42.9902 42.5689C42.7395 42.9918 42.6188 43.5129 42.6283 44.1319C42.6377 44.751 42.6799 45.3267 42.7547 45.859C43.035 46.7502 43.3861 47.5927 43.8078 48.3864C44.3056 49.1695 45.1249 49.4809 46.2656 49.3206L47.2922 49.1763C47.6724 49.1228 48.0473 49.0314 48.4169 48.9019C48.8625 48.7617 49.308 48.6216 49.7536 48.4814L50.488 47.9129L50.6181 48.0109C51.053 47.7947 51.8034 47.3403 52.8693 46.6476C53.9352 45.955 54.963 45.2677 55.9529 44.5857C56.932 43.8277 57.5196 43.3186 57.7157 43.0584L57.8138 42.9283L57.8958 42.6842L58.1899 42.2938C59.4198 41.1129 60.633 40.0893 61.8296 39.2232C63.0156 38.281 64.1314 37.1161 65.1771 35.7283L65.4373 35.9244L65.7795 35.8763C65.7783 36.4193 65.647 36.8643 65.3855 37.2113C65.1134 37.4821 64.814 37.8344 64.4872 38.2681L64.2251 38.8865C63.5156 40.4597 62.3118 42.1023 60.6137 43.8144C58.9917 45.5158 57.4896 46.9676 56.1076 48.17C55.6181 48.549 55.1392 49.004 54.671 49.5351C54.1921 49.9902 53.6265 50.3799 52.9741 50.7042C51.7348 51.2661 50.5828 51.6219 49.5181 51.7715ZM43.88 38.1399C44.3362 38.0757 44.6404 38.033 44.7925 38.0116C45.01 37.9035 45.3035 37.7847 45.673 37.6552C47.0764 36.6049 48.3443 35.4186 49.4768 34.0962C50.6853 32.7631 51.8178 31.4408 52.8742 30.1291C52.9515 29.5754 53.2676 29.0656 53.8225 28.5999L54.2307 28.1936C54.3614 28.0201 54.4541 27.852 54.5088 27.6892C54.6395 27.5157 54.6942 27.3529 54.6728 27.2008C54.7382 27.1141 54.6628 26.8533 54.4465 26.4184L54.2523 25.8641L54.2202 25.6359C53.9814 25.5919 53.6719 25.5967 53.2917 25.6501C52.7914 25.9531 52.3072 26.3701 51.839 26.9012C51.3708 27.4323 50.8378 27.7786 50.2401 27.9401C50.0001 28.4392 49.4392 29.1384 48.5574 30.0378C48.0892 30.5689 47.621 31.1 47.1528 31.6311C46.75 32.0754 46.4832 32.3844 46.3525 32.5578C45.895 33.165 45.3661 34.0923 44.766 35.3399C44.1552 36.5114 43.8598 37.4447 43.88 38.1399Z" fill="#2B1205"/>
<path d="M78.286 48.5427C77.7536 48.6175 77.3247 48.6003 76.9991 48.4909C76.7496 48.3709 76.424 48.2616 76.0224 48.1629C73.5154 47.4296 72.0694 45.6941 71.6847 42.9564C71.3747 40.751 71.6738 38.1887 72.5818 35.2693C73.4899 32.3499 74.2993 29.8322 75.01 27.716L75.666 25.7626L74.8836 25.9889C74.5034 26.0424 74.2919 25.917 74.2491 25.6128L74.2331 25.4987C74.4838 25.0758 74.7072 24.7342 74.9033 24.474C75.1754 24.2031 75.4042 23.8995 75.5896 23.5632C76.1018 22.7933 76.5492 21.8386 76.9319 20.6992C77.3146 19.5597 78.0003 18.9205 78.9889 18.7816C79.2931 18.7388 79.9555 18.762 80.9761 18.8512C82.0729 18.9297 83.1042 19.095 84.0702 19.347C85.1016 19.5122 85.644 19.785 85.6974 20.1652C85.7295 20.3933 85.4948 20.9304 84.9933 21.7764C84.5678 22.6116 84.1043 23.4523 83.6028 24.2982C83.0907 25.0681 82.7039 25.6266 82.4424 25.9735C82.181 26.3205 81.9902 26.6187 81.8702 26.8682C81.7395 27.0417 81.6088 27.2151 81.4781 27.3886C80.8886 28.7122 80.1518 30.3668 79.2676 32.3522C78.4594 34.3269 77.7707 36.3237 77.2014 38.3424C76.632 40.3611 76.4489 42.0929 76.652 43.5378C76.8871 45.2109 77.2328 46.0153 77.6891 45.9512C77.8412 45.9298 77.9826 45.8324 78.1133 45.6589C78.3201 45.4748 78.5649 45.2853 78.8477 45.0904C79.8601 44.0175 80.7044 42.852 81.3806 41.5937C82.1222 40.2487 82.8691 38.9417 83.6213 37.6728C84.559 36.0676 85.502 34.5004 86.4503 32.9712C87.464 31.3554 88.3636 29.7555 89.1491 28.1717C89.5853 27.4124 90.1307 26.3276 90.7856 24.9173C91.5057 23.4202 92.0999 22.4061 92.5681 21.875C92.8509 21.6802 93.2205 21.5507 93.6768 21.4866C94.133 21.4224 94.5133 21.369 94.8175 21.3262C95.4258 21.2407 96.0716 21.4214 96.7548 21.8682C97.4273 22.239 97.8063 22.7286 97.8918 23.337L97.9078 23.451C97.9933 24.0594 97.8287 24.8192 97.414 25.7306L96.8078 27.2116C96.7532 27.3744 96.7038 27.5752 96.6599 27.814C96.6052 27.9768 96.5505 28.1396 96.4958 28.3024C96.1999 29.5072 96.0554 30.9622 96.0624 32.6673C96.1454 34.3617 96.3158 35.8499 96.5735 37.132C96.7458 37.8058 97.0101 38.5829 97.3665 39.4634C97.7122 40.2678 98.2866 40.7687 99.0899 40.966L99.4321 40.9179C101.345 40.1838 102.956 38.6778 104.264 36.4001C105.573 34.1224 106.642 32.0722 107.471 30.2496C107.722 29.8266 107.94 29.447 108.125 29.1107C108.3 28.6984 108.35 28.2261 108.275 27.6938C108.471 27.4336 108.657 27.0974 108.831 26.6851C108.995 26.1967 109.067 25.8765 109.045 25.7244L108.589 25.7885C108.558 25.0174 108.636 24.4637 108.821 24.1274C109.006 23.7912 109.17 23.3028 109.313 22.6624C110.122 20.1446 110.166 17.6957 109.444 15.3157C109.314 14.9461 109.147 14.5819 108.941 14.2231C108.725 13.7882 108.389 13.6028 107.932 13.6669C107.552 13.7203 107.183 13.8498 106.824 14.0553C106.465 14.2609 106.095 14.3904 105.715 14.4438C105.107 14.5293 104.755 14.2298 104.658 13.5454C105.072 13.1771 105.458 12.8902 105.817 12.6847C106.241 12.3924 106.671 12.1382 107.106 11.9219C108.941 11.7415 110.516 11.908 111.829 12.4214C113.218 12.9241 114.388 14.078 115.34 15.8829C115.556 16.3178 115.68 16.6494 115.712 16.8775C115.765 17.2577 115.743 17.6487 115.644 18.0503C115.622 18.4412 115.566 18.8755 115.478 19.3531C115.39 19.8308 115.346 20.3411 115.345 20.8841C115.343 21.4271 115.439 22.1116 115.633 22.9374L115.095 23.2457C115.051 23.4845 114.958 23.9241 114.815 24.5646C114.748 25.1943 114.736 25.6613 114.779 25.9655C114.279 26.2684 113.887 26.7888 113.603 27.5267C113.319 28.2646 113.143 28.9484 113.077 29.5781C112.38 30.1413 111.917 30.7104 111.688 31.2855C111.535 31.8499 111.316 32.501 111.032 33.2388C110.759 34.0527 110.345 34.6926 109.79 35.1583C109.311 35.6133 108.918 36.4053 108.611 37.534C107.577 38.4548 106.413 39.5491 105.118 40.8168C103.812 42.0085 102.436 42.7058 100.991 42.9089C100.839 42.9303 100.421 42.9891 99.7367 43.0852C99.0416 43.1054 98.5746 43.0935 98.3358 43.0495C95.7407 42.7938 93.9175 42.2358 92.866 41.3754C91.8905 40.5044 91.2211 38.7761 90.8577 36.1905C90.7295 35.2779 90.6773 34.3547 90.7011 33.4207C90.801 32.4761 90.8302 31.5802 90.7886 30.733C90.0816 31.2201 89.3787 32.2883 88.6799 33.9374C88.0571 35.5759 87.5764 36.8455 87.2377 37.7462C86.8883 38.5707 86.4682 39.4441 85.9774 40.3661C85.4866 41.2881 84.9417 42.1014 84.3428 42.8059C83.6892 43.6733 83.2477 44.3945 83.0183 44.9696C82.865 45.534 82.2227 46.2058 81.0915 46.9852C80.5912 47.2882 80.129 47.5858 79.7047 47.878C79.3673 48.2357 78.8943 48.4572 78.286 48.5427Z" fill="#2B1205"/>
<path d="M126.327 46.5603C125.871 46.6244 125.464 46.4877 125.106 46.1502C124.683 45.8995 124.287 45.5673 123.919 45.1538L123.367 44.5335C123.193 44.4028 123.014 44.2341 122.83 44.0273C122.57 43.8312 122.288 43.7546 121.984 43.7973C121.93 43.4171 121.811 43.1236 121.627 42.9168C121.443 42.7101 121.324 42.4165 121.271 42.0363C122.558 39.6065 124.295 37.3461 126.483 35.255C128.66 33.0879 130.912 31.1816 133.24 29.5361L133.582 29.488C133.974 28.9676 134.491 28.5072 135.133 28.1068C135.775 27.7064 136.286 27.208 136.668 26.6116C135.366 26.1742 134.079 25.8509 132.809 25.6417C131.604 25.3457 130.411 24.8543 129.229 24.1674C128.22 23.6112 127.228 22.8976 126.252 22.0266C125.266 21.0795 124.693 20.0356 124.533 18.8949C124.287 17.1458 124.503 15.3707 125.18 13.5694C125.923 11.6814 126.925 10.2609 128.187 9.30808C128.416 8.733 129.097 8.05578 130.228 7.2764C131.359 6.49703 132.534 5.75033 133.752 5.03631C134.97 4.3223 135.867 3.80847 136.443 3.49483C136.922 3.03978 137.466 2.7695 138.074 2.684L139.461 1.79118L139.575 1.77514C140.335 1.66827 141.205 1.50734 142.183 1.29235C143.161 1.07736 143.954 0.927117 144.562 0.841616C145.094 0.766802 145.849 0.893411 146.826 1.22144C147.802 1.54947 148.719 2.00225 149.576 2.5798C150.422 3.08129 150.887 3.63623 150.973 4.2446C151.102 4.61415 150.998 5.24924 150.659 6.14988C150.386 6.96378 150.036 7.78838 149.611 8.62366C149.251 9.3722 148.929 9.8439 148.646 10.0387L148.32 10.2009L147.864 10.265L147.67 9.71071C147.996 9.27704 148.253 8.62058 148.44 7.74131C148.626 6.86205 148.677 6.11823 148.591 5.50985C148.431 4.36915 147.705 3.88965 146.412 4.07134C145.499 4.19959 144.608 4.47993 143.738 4.91237C142.934 5.25808 142.135 5.64181 141.341 6.06356C138.514 7.46898 136.061 9.05445 133.983 10.82C131.894 12.5094 130.178 14.922 128.835 18.0576C128.42 18.9689 128.261 19.7668 128.357 20.4512C128.518 21.5919 129.65 22.4796 131.756 23.1143C132.071 23.1475 132.765 23.3989 133.839 23.8683C134.979 24.251 136.08 24.6391 137.144 25.0325C138.197 25.3498 138.723 25.5085 138.723 25.5085C139.103 25.455 139.462 25.2495 139.799 24.8919C140.126 24.4582 140.431 24.144 140.714 23.9491C141.921 23.1591 143.411 22.1741 145.184 20.9944C146.946 19.7386 148.501 18.9385 149.849 18.594C150.066 18.4859 150.284 18.3778 150.501 18.2697C150.795 18.1509 151.088 18.0321 151.382 17.9133C151.762 17.8598 152.055 18.0125 152.26 18.3714C152.162 18.773 151.857 19.0873 151.346 19.3142C151.008 19.6718 150.486 20.0942 149.779 20.5813C149.061 20.9923 148.452 21.3493 147.952 21.6523C147.441 21.8792 147.028 22.2475 146.711 22.7572C146.667 22.9961 146.471 23.2563 146.123 23.5379C145.644 23.9929 144.888 24.6808 143.854 25.6016C142.886 26.4356 142.498 27.2656 142.692 28.0914C142.724 28.3195 143.006 28.6677 143.537 29.1359C144.133 29.5174 144.496 29.8929 144.626 30.2624C144.787 30.8601 144.753 31.718 144.522 32.8361C144.367 33.9435 144.061 34.8008 143.604 35.4079L143.782 35.8482C143.271 36.0751 142.961 36.3513 142.852 36.6769C142.732 36.9264 142.546 37.2626 142.295 37.6856C142.11 38.0219 141.876 38.2874 141.593 38.4823C141.321 38.7531 140.919 38.926 140.386 39.0008L139.912 39.7654L139.798 39.7814C139.266 39.8562 138.836 40.1105 138.51 40.5442C138.193 41.0539 137.872 41.5256 137.545 41.9592L137.187 41.8933C136.807 41.9467 136.296 42.1736 135.654 42.574C135.099 43.0397 134.642 43.3753 134.283 43.5809C133.783 43.8838 133.24 44.1541 132.653 44.3917C132.066 44.6293 131.392 44.8015 130.631 44.9084C130.403 44.9405 130.175 44.9725 129.947 45.0046C129.719 45.0367 129.485 45.0307 129.246 44.9867C129.181 45.0735 129.072 45.1275 128.92 45.1489L128.61 45.4251C128.175 45.6413 127.844 45.7655 127.616 45.7975C127.159 45.8617 126.91 45.7416 126.867 45.4375C126.911 45.1986 127.031 44.9491 127.227 44.6889C127.358 44.5154 127.673 44.2772 128.174 43.9743C128.685 43.7474 129.185 43.4444 129.674 43.0654C130.251 42.7518 130.746 42.4108 131.159 42.0425C131.659 41.7395 132.056 41.5287 132.35 41.4099C132.415 41.3231 132.48 41.2364 132.546 41.1496C132.611 41.0629 132.677 40.9762 132.742 40.8894L133.362 40.337C134.331 39.5029 135.348 38.4681 136.416 37.2324C137.472 35.9207 138.328 34.5597 138.982 33.1493C139.713 31.7283 139.923 30.4581 139.61 29.3388C139.589 29.1867 139.513 28.9259 139.384 28.5563C139.254 28.1868 139.076 28.018 138.847 28.0501C138.619 28.0822 138.374 28.2717 138.113 28.6186C137.852 28.9655 137.656 29.2257 137.525 29.3992C137.046 29.8543 136.491 30.32 135.86 30.7964C135.305 31.2621 134.756 31.7659 134.211 32.3077C133.526 32.9469 132.927 33.6515 132.414 34.4214C131.892 35.1152 131.293 35.8198 130.618 36.5351C129.736 37.4345 128.898 38.3665 128.103 39.3313C127.373 40.2093 126.654 41.1634 125.946 42.1935C125.575 42.866 125.443 43.5825 125.55 44.343C125.669 44.6365 125.826 44.9247 126.02 45.2075C126.226 45.5663 126.393 45.9305 126.523 46.3001L126.441 46.5442L126.327 46.5603Z" fill="#2B1205"/>
</svg>
