<svg width="266" height="79" viewBox="0 0 266 79" fill="none" xmlns="http://www.w3.org/2000/svg">
<path d="M5.30432 78.8238C4.84804 78.8879 4.44109 78.7513 4.08346 78.4138C3.66048 78.163 3.26483 77.8309 2.89652 77.4174L2.34405 76.7971C2.17058 76.6664 1.99176 76.4976 1.80761 76.2908C1.54741 76.0948 1.26521 76.0181 0.961024 76.0609C0.907586 75.6806 0.788789 75.3871 0.604632 75.1804C0.420476 74.9736 0.301678 74.6801 0.24824 74.2999C1.53528 71.8701 3.27264 69.6096 5.46031 67.5186C7.6373 65.3514 9.88972 63.4451 12.2176 61.7996L12.5598 61.7515C12.9519 61.2311 13.4688 60.7707 14.1105 60.3704C14.7522 59.97 15.2638 59.4716 15.6452 58.8751C14.343 58.4378 13.0568 58.1145 11.7866 57.9052C10.5817 57.6093 9.38822 57.1178 8.20601 56.4309C7.19726 55.8748 6.20516 55.1612 5.2297 54.2901C4.24356 53.343 3.67033 52.2991 3.51002 51.1584C3.2642 49.4094 3.48001 47.6342 4.15744 45.8329C4.90023 43.9449 5.90261 42.5245 7.16457 41.5716C7.39395 40.9966 8.07426 40.3193 9.2055 39.5399C10.3367 38.7606 11.5114 38.0139 12.7293 37.2999C13.9473 36.5858 14.8445 36.072 15.4208 35.7584C15.8997 35.3033 16.4433 35.0331 17.0517 34.9475L18.4384 34.0547L18.5525 34.0387C19.3129 33.9318 20.1821 33.7709 21.16 33.5559C22.138 33.3409 22.9311 33.1907 23.5395 33.1052C24.0718 33.0303 24.8263 33.157 25.803 33.485C26.7797 33.813 27.6964 34.2658 28.553 34.8433C29.399 35.3448 29.8647 35.8998 29.9502 36.5081C30.0797 36.8777 29.9751 37.5128 29.6364 38.4134C29.363 39.2273 29.0136 40.0519 28.5882 40.8872C28.2281 41.6358 27.9066 42.1074 27.6238 42.3023L27.2976 42.4645L26.8413 42.5286L26.6471 41.9743C26.9739 41.5406 27.2306 40.8841 27.4172 40.0049C27.6039 39.1256 27.6544 38.3818 27.5689 37.7734C27.4086 36.6327 26.6821 36.1532 25.3893 36.3349C24.4767 36.4631 23.5855 36.7435 22.7157 37.1759C21.9113 37.5216 21.1122 37.9054 20.3184 38.3271C17.4915 39.7325 15.0389 41.318 12.9606 43.0835C10.8715 44.773 9.15556 47.1855 7.81262 50.3211C7.39785 51.2324 7.23857 52.0303 7.33476 52.7147C7.49507 53.8554 8.62796 54.7431 10.7334 55.3778C11.0483 55.4111 11.7428 55.6625 12.8169 56.1319C13.9564 56.5146 15.0578 56.9026 16.1212 57.296C17.174 57.6134 17.7003 57.772 17.7003 57.772C18.0806 57.7186 18.4394 57.5131 18.7769 57.1554C19.1037 56.7218 19.4085 56.4075 19.6913 56.2127C20.8986 55.4226 22.3887 54.4377 24.1616 53.2579C25.9239 52.0021 27.4787 51.202 28.8262 50.8575C29.0436 50.7494 29.2611 50.6413 29.4785 50.5332C29.772 50.4144 30.0655 50.2956 30.359 50.1768C30.7393 50.1234 31.0321 50.2761 31.2377 50.635C31.139 51.0366 30.8342 51.3508 30.3233 51.5777C29.9858 51.9354 29.4635 52.3577 28.7565 52.8448C28.0388 53.2559 27.4298 53.6129 26.9295 53.9158C26.4186 54.1428 26.005 54.5111 25.6889 55.0208C25.6449 55.2596 25.4489 55.5198 25.1007 55.8014C24.6218 56.2564 23.8655 56.9444 22.8316 57.8651C21.8632 58.6992 21.4757 59.5291 21.6694 60.355C21.7014 60.5831 21.983 60.9313 22.5141 61.3995C23.1105 61.7809 23.4735 62.1564 23.603 62.526C23.7645 63.1237 23.73 63.9816 23.4994 65.0996C23.3448 66.2071 23.0388 67.0643 22.5813 67.6715L22.7595 68.1117C22.2485 68.3386 21.9384 68.6149 21.8291 68.9404C21.709 69.1899 21.5236 69.5262 21.2729 69.9492C21.0875 70.2854 20.8534 70.551 20.5706 70.7458C20.2985 71.0167 19.8962 71.1895 19.3639 71.2644L18.8897 72.0289L18.7757 72.045C18.2434 72.1198 17.8138 72.374 17.487 72.8077C17.1709 73.3174 16.8494 73.7891 16.5226 74.2228L16.1644 74.1568C15.7842 74.2102 15.2732 74.4372 14.6315 74.8375C14.0766 75.3033 13.6197 75.6389 13.2609 75.8444C12.7606 76.1474 12.217 76.4177 11.63 76.6553C11.043 76.8928 10.3692 77.0651 9.60877 77.172C9.38063 77.204 9.15249 77.2361 8.92435 77.2682C8.69621 77.3002 8.46272 77.2942 8.22389 77.2503C8.15853 77.337 8.04981 77.3911 7.89772 77.4124L7.58757 77.6887C7.15266 77.9049 6.82114 78.029 6.593 78.0611C6.13672 78.1252 5.88721 78.0052 5.84446 77.701C5.88844 77.4622 6.00847 77.2127 6.20455 76.9525C6.33526 76.779 6.65075 76.5408 7.15102 76.2378C7.66197 76.0109 8.16223 75.708 8.65181 75.329C9.22812 75.0153 9.72304 74.6743 10.1366 74.306C10.6368 74.0031 11.0337 73.7922 11.3272 73.6734C11.3926 73.5867 11.4579 73.4999 11.5233 73.4132C11.5886 73.3265 11.654 73.2397 11.7194 73.153L12.3397 72.6005C13.3081 71.7665 14.3259 70.7316 15.393 69.496C16.4495 68.1843 17.3051 66.8232 17.9599 65.4129C18.6908 63.9918 18.9 62.7216 18.5876 61.6023C18.5662 61.4502 18.4908 61.1894 18.3613 60.8199C18.2318 60.4503 18.053 60.2816 17.8249 60.3136C17.5967 60.3457 17.352 60.5352 17.0905 60.8821C16.8291 61.2291 16.633 61.4893 16.5023 61.6628C16.0234 62.1178 15.4685 62.5835 14.8375 63.06C14.2825 63.5257 13.733 64.0294 13.1887 64.5712C12.5031 65.2104 11.9041 65.915 11.392 66.6849C10.8691 67.3788 10.2702 68.0834 9.5952 68.7986C8.71347 69.698 7.8751 70.6301 7.08011 71.5949C6.35047 72.4729 5.63152 73.427 4.92326 74.4571C4.55248 75.1296 4.42053 75.8461 4.52741 76.6065C4.64621 76.9 4.80303 77.1882 4.99787 77.471C5.2034 77.8299 5.37091 78.1941 5.5004 78.5636L5.41839 78.8078L5.30432 78.8238Z" fill="#2B1205"/>
<path d="M49.1736 67.0749C47.8048 67.2673 46.2845 67.2095 44.6127 66.9016C43.0169 66.583 41.5739 65.9716 40.2835 65.0673C39.0693 64.1522 38.2792 62.9449 37.9134 61.4454C37.8599 61.0651 37.8065 60.6849 37.753 60.3047C37.7757 59.9138 37.7276 59.5715 37.6088 59.278C37.5767 59.0499 37.3165 58.8538 36.8282 58.6898L36.4378 58.3957C36.1123 58.2864 35.7814 58.139 35.4451 57.9536C35.0982 57.6922 34.898 57.3713 34.8446 56.9911C35.062 56.883 35.2468 56.8182 35.3989 56.7969C35.7791 56.7434 36.1267 56.7334 36.4415 56.7667C36.8325 56.7893 37.18 56.7792 37.4842 56.7364C37.4082 56.7471 37.4248 56.5897 37.5342 56.2641C37.5128 56.112 37.5294 55.9546 37.5841 55.7918C37.6281 55.553 37.6828 55.3902 37.7481 55.3035C37.8242 55.2928 37.9008 55.0106 37.9781 54.4569C38.0447 53.8271 38.1107 53.4689 38.176 53.3822C38.7811 49.9625 39.8359 46.9838 41.3404 44.4459C42.9102 41.8212 45.25 39.7088 48.3597 38.1085C48.6532 37.9897 48.914 37.9143 49.1422 37.8822C49.4357 37.7634 49.7345 37.6826 50.0387 37.6399C50.6471 37.5544 51.4776 37.6703 52.5303 37.9876C53.5724 38.2289 54.5217 38.6384 55.3784 39.2159C56.3004 39.7067 56.8475 40.289 57.0198 40.9627C57.0625 41.2669 57.0999 41.5331 57.132 41.7612C57.2401 41.9787 57.3155 42.2395 57.3583 42.5437C57.4224 42.9999 57.3832 43.5483 57.2405 44.1887L56.6042 44.6271C56.4948 44.9527 56.3748 45.2022 56.2441 45.3757L55.6719 46.2704C55.149 46.9642 54.9797 47.4146 55.1638 47.6213L54.9517 47.7674C54.9517 47.7674 54.9571 47.8055 54.9677 47.8815C54.9677 47.8815 54.9297 47.8869 54.8537 47.8976L54.9517 47.7674L54.8537 47.8976L54.8697 48.0116L54.3154 48.2059C54.0433 48.4767 53.8145 48.7803 53.6291 49.1166C53.433 49.3768 53.2423 49.675 53.0569 50.0112C52.0872 51.3883 50.7539 52.6614 49.0571 53.8304C47.3495 54.9234 45.7834 55.919 44.3586 56.8172C44.1412 56.9253 43.815 57.0875 43.3801 57.3037C43.0105 57.4332 42.7658 57.6227 42.6457 57.8722C42.395 58.2952 42.2743 58.8162 42.2838 59.4353C42.2932 60.0543 42.3354 60.63 42.4102 61.1624C42.6905 62.0535 43.0416 62.896 43.4633 63.6898C43.9611 64.4729 44.7804 64.7842 45.9211 64.6239L46.9477 64.4796C47.3279 64.4262 47.7028 64.3347 48.0724 64.2053C48.518 64.0651 48.9636 63.9249 49.4092 63.7847L50.1435 63.2162L50.2736 63.3143C50.7085 63.098 51.4589 62.6436 52.5248 61.951C53.5907 61.2583 54.6186 60.571 55.6084 59.8891C56.5875 59.1311 57.1752 58.622 57.3712 58.3618L57.4693 58.2317L57.5513 57.9875L57.8454 57.5972C59.0753 56.4162 60.2886 55.3927 61.4852 54.5266C62.6711 53.5844 63.7869 52.4194 64.8326 51.0317L65.0928 51.2278L65.4351 51.1797C65.4338 51.7227 65.3025 52.1677 65.0411 52.5146C64.7689 52.7855 64.4695 53.1378 64.1427 53.5715L63.8806 54.1899C63.1711 55.763 61.9673 57.4056 60.2692 59.1177C58.6472 60.8191 57.1452 62.271 55.7632 63.4734C55.2736 63.8524 54.7947 64.3074 54.3265 64.8385C53.8476 65.2935 53.282 65.6832 52.6296 66.0076C51.3903 66.5695 50.2383 66.9253 49.1736 67.0749ZM43.5355 53.4432C43.9917 53.3791 44.2959 53.3363 44.448 53.315C44.6655 53.2068 44.959 53.0881 45.3285 52.9586C46.7319 51.9083 47.9998 50.722 49.1323 49.3996C50.3408 48.0665 51.4733 46.7441 52.5297 45.4324C52.607 44.8787 52.9231 44.369 53.4781 43.9033L53.8862 43.4969C54.017 43.3234 54.1097 43.1553 54.1643 42.9925C54.295 42.8191 54.3497 42.6563 54.3283 42.5042C54.3937 42.4175 54.3183 42.1566 54.102 41.7217L53.9078 41.1674L53.8758 40.9393C53.6369 40.8953 53.3274 40.9 52.9472 40.9535C52.4469 41.2564 51.9627 41.6734 51.4945 42.2045C51.0263 42.7356 50.4933 43.0819 49.8956 43.2435C49.6556 43.7425 49.0947 44.4417 48.2129 45.3412C47.7447 45.8722 47.2766 46.4033 46.8083 46.9344C46.4055 47.3788 46.1387 47.6877 46.008 47.8612C45.5505 48.4683 45.0217 49.3957 44.4215 50.6433C43.8107 51.8148 43.5153 52.7481 43.5355 53.4432Z" fill="#2B1205"/>
<path d="M75.5441 64.9973C75.0118 65.0721 74.4201 65.0001 73.769 64.7815C73.1178 64.5628 72.6408 64.2033 72.3379 63.703L72.3718 63.1167C72.4967 60.6951 72.8605 58.3175 73.4631 55.9839C74.0658 53.6503 74.5923 51.3274 75.0428 49.0151C75.4161 47.2566 75.8119 45.1072 76.2304 42.5668C76.6489 40.0264 76.7245 37.8056 76.4573 35.9045C76.4253 35.6763 76.3932 35.4482 76.3611 35.2201C76.3184 34.9159 76.2429 34.6551 76.1348 34.4376C75.6025 34.5124 75.1189 34.6579 74.684 34.8742C74.2384 35.0143 73.7494 35.1218 73.2171 35.1966L73.103 35.2127C72.7228 35.2661 72.5006 35.0647 72.4365 34.6084C72.4044 34.3803 72.5191 34.0927 72.7806 33.7458C73.042 33.3988 73.4769 33.1826 74.0853 33.0971C74.3241 33.1411 74.9758 33.0883 76.0405 32.9387C76.6489 32.8532 77.4907 32.7736 78.5661 32.7C79.6307 32.5504 80.6354 32.5255 81.58 32.6254C82.6006 32.7146 83.2405 33.1288 83.4994 33.8679C83.6396 34.3135 83.5344 35.2201 83.1837 36.5877C82.8985 37.8685 82.5532 39.2742 82.1479 40.8046C81.6665 42.3456 81.2178 43.8433 80.8018 45.2977C80.6592 45.9381 80.5166 46.5786 80.3739 47.219C80.2206 47.7834 80.1707 48.2557 80.2241 48.6359L80.2401 48.75L80.4202 48.3757C80.7803 47.6272 81.1457 46.9167 81.5165 46.2442C81.9633 45.561 82.3014 44.9318 82.5308 44.3568C82.8469 43.847 83.321 43.0825 83.9533 42.063C84.6508 40.9569 85.3431 39.8127 86.0299 38.6304C86.7929 37.4375 87.5178 36.25 88.2047 35.0678C88.9676 33.8749 89.6539 32.9641 90.2635 32.3356C90.3942 32.1622 90.5196 31.9507 90.6396 31.7012C90.8357 31.4409 91.0425 31.2568 91.2599 31.1487C91.4774 31.0406 91.7762 30.9598 92.1564 30.9064C92.602 30.7662 93.2431 30.6373 94.0796 30.5198C94.3077 30.4877 94.5412 30.4937 94.78 30.5376C95.0082 30.5056 95.1983 30.4789 95.3504 30.4575C95.6546 30.4147 96.333 30.552 97.3858 30.8694C98.4278 31.1107 99.4805 31.428 100.544 31.8214C101.607 32.2148 102.166 32.6016 102.219 32.9818C102.402 33.7316 102.216 34.3393 101.661 34.8051C101.172 35.1841 100.769 35.6284 100.453 36.1382C100.017 36.8974 99.5911 37.7327 99.1764 38.644C98.827 39.4686 98.5589 40.3205 98.3723 41.1998L98.2404 41.9163C97.9789 42.2632 97.7341 42.4527 97.506 42.4848C97.0497 42.5489 96.8602 42.3041 96.9375 41.7504C96.8306 40.9899 96.8105 40.2948 96.8771 39.6651C96.933 38.9593 96.9616 38.3349 96.9628 37.7919C97.0294 37.1621 97.0253 36.5811 96.9505 36.0488C96.941 35.4297 96.8502 34.7833 96.6779 34.1096C96.6459 33.8814 96.5538 33.778 96.4017 33.7994C95.7173 33.8956 95.1136 34.2906 94.5908 34.9845C94.0679 35.6784 93.6484 36.2802 93.3323 36.7899L92.712 37.3424C92.4066 37.9281 91.8457 38.6274 91.0293 39.44L89.0864 41.3416C88.6075 41.7967 87.9539 42.664 87.1256 43.9436C86.2867 45.1472 85.6438 46.0906 85.1969 46.7738C85.2076 46.8499 84.9468 46.9253 84.4145 47.0001L84.3004 47.0161L84.2024 47.1462L84.2344 47.3744C84.4186 47.5811 84.3799 47.858 84.1185 48.2049C83.7477 48.8774 83.0935 50.0163 82.1559 51.6215C81.2183 53.2267 80.3186 54.8265 79.4571 56.4211C78.5848 57.9395 78.1153 59.0136 78.0487 59.6434C77.8621 60.5226 77.7028 61.3205 77.5709 62.037C77.515 62.7428 77.5945 63.5846 77.8095 64.5626C77.2665 64.5613 76.8809 64.5768 76.6528 64.6088C76.5114 64.7062 76.4027 64.7603 76.3266 64.771C76.1092 64.8791 75.8483 64.9545 75.5441 64.9973Z" fill="#2B1205"/>
<path d="M112.179 60.1975C111.115 60.3471 110.252 60.0031 109.591 59.1653C109.018 58.3929 108.677 57.6265 108.57 56.866C108.325 55.117 108.312 53.3739 108.533 51.6367C108.744 49.8235 108.884 48.059 108.953 46.3432C109.031 45.2465 109.034 44.1605 108.96 43.0851C108.963 41.9991 108.927 40.9184 108.853 39.8431C108.855 39.3001 108.861 38.7951 108.873 38.3281C108.874 37.7851 108.876 37.2421 108.877 36.6991L108.749 35.7865C108.631 34.95 108.404 34.4391 108.068 34.2537C107.732 34.0683 106.993 34.0557 105.852 34.2161C105.472 34.2695 105.195 34.2309 105.022 34.1001C104.935 34.0348 104.892 34.0021 104.892 34.0021C104.881 33.926 104.876 33.888 104.876 33.888C104.833 33.5838 104.915 33.3397 105.122 33.1555C105.405 32.9607 105.655 32.8092 105.872 32.7011L107.517 32.8188L107.729 32.6727C108.196 32.6846 108.696 32.6532 109.228 32.5784C109.826 32.4168 110.391 32.2986 110.923 32.2238C111.76 32.1063 112.568 32.3416 113.349 32.9298C114.119 33.442 114.563 34.1164 114.68 34.9529C114.744 35.4092 114.732 35.8761 114.644 36.3538C114.622 36.7447 114.605 37.1737 114.593 37.6406C114.603 37.7167 114.657 37.8254 114.755 37.9668L114.787 38.1949C115.014 38.7059 114.963 39.4497 114.635 40.4264C114.296 41.327 114.094 42.0922 114.027 42.722C114.015 43.1889 114.003 43.6559 113.991 44.1229C114.045 44.5031 114.022 44.894 113.924 45.2956C113.825 45.6972 113.77 46.1315 113.758 46.5985C113.746 47.0655 113.696 47.5378 113.608 48.0154C113.411 48.8187 113.316 49.8013 113.324 50.9634C113.367 51.2676 113.388 51.4197 113.388 51.4197C113.464 51.409 113.53 51.3222 113.585 51.1595C113.879 50.4976 114.131 49.8032 114.339 49.076C114.547 48.3488 114.803 47.6923 115.109 47.1066C116.352 44.9156 117.676 42.752 119.082 40.6157C120.564 38.4687 122.095 36.3924 123.674 34.3868C124.741 33.1512 125.775 31.9589 126.777 30.81C127.779 29.6611 129.003 28.7136 130.449 27.9675C131.101 27.6431 131.732 27.4382 132.34 27.3527C134.013 27.1176 135.337 27.4356 136.313 28.3066C136.768 28.7855 137.022 29.215 137.076 29.5953C137.118 29.8995 136.988 30.0729 136.683 30.1157C136.531 30.1371 136.124 30.0004 135.463 29.7057C135.126 29.5203 134.692 29.465 134.16 29.5398C133.703 29.6039 133.285 29.6627 132.905 29.7161C132.068 29.8337 130.992 30.4503 129.675 31.5659C129.403 31.8368 129.131 32.1077 128.859 32.3786C128.652 32.5628 128.532 32.8123 128.499 33.1271C127.977 33.278 127.662 33.5162 127.552 33.8418C127.443 34.1673 127.225 34.547 126.898 34.9806L126.148 35.4351L124.023 38.5254L123.909 38.5415L124.087 38.9817C123.707 39.0351 123.451 39.1486 123.321 39.3221C122.907 39.6904 122.586 40.1621 122.356 40.7372C122.116 41.2362 121.833 41.7025 121.506 42.1362L121.212 42.5265C120.95 42.8734 120.732 43.2531 120.558 43.6654C120.459 44.067 120.328 44.5119 120.164 45.0003L119.233 45.829L119.395 46.1552C119.123 46.4261 119.003 46.6756 119.035 46.9037C118.578 47.5109 118.011 48.4436 117.335 49.7018C116.658 50.9601 116.325 51.8988 116.335 52.5178C115.834 52.8208 115.339 53.4333 114.848 54.3553C114.433 55.2666 114.1 56.2053 113.848 57.1713C113.585 58.0612 113.486 58.7343 113.55 59.1906C113.517 59.5055 113.353 59.7223 113.06 59.8411C112.777 60.036 112.483 60.1548 112.179 60.1975Z" fill="#2B1205"/>
<path d="M153.186 23.3762C152.425 23.4831 151.502 23.5353 150.416 23.5328C149.319 23.4543 148.653 22.85 148.416 21.72C148.395 21.5679 148.608 21.1503 149.054 20.4671C149.577 19.7732 150.1 19.0793 150.623 18.3855C151.222 17.6809 151.587 17.2419 151.717 17.0684C151.924 16.8843 152.398 16.3912 153.138 15.5892C153.954 14.7765 154.547 14.577 154.915 14.9905C155.002 15.0559 155.115 15.5828 155.254 16.5714L155.478 18.1684C155.499 18.3205 155.445 18.4833 155.314 18.6568C155.238 18.6675 155.059 18.7702 154.776 18.9651C154.558 19.0732 154.455 19.1652 154.466 19.2413L154.596 19.3393C154.759 19.394 154.894 19.5301 155.002 19.7475C155.186 19.9543 155.251 20.1391 155.196 20.3018C154.967 20.8769 154.672 21.5387 154.312 22.2873C153.941 22.9598 153.566 23.3227 153.186 23.3762ZM146.713 54.2972C146.409 54.3399 145.747 54.3167 144.726 54.2275C143.781 54.1276 143.146 54.023 142.821 53.9137C141.985 53.4882 141.389 53.1067 141.031 52.7692C140.674 52.4318 140.409 51.6547 140.238 50.4379C139.928 48.2326 140.118 45.9958 140.807 43.7275C141.562 41.3725 142.219 39.1477 142.777 37.0529C142.908 36.8794 142.892 36.7653 142.729 36.7107L142.697 36.4825C142.362 35.7541 142.43 34.8529 142.899 33.7788C143.358 32.6286 143.941 31.5385 144.649 30.5083C145.358 29.4782 145.919 28.779 146.332 28.4107C146.712 28.3572 147.407 28.3371 148.417 28.3502C149.417 28.2874 150.389 28.3059 151.333 28.4057C152.278 28.5056 152.788 28.8217 152.862 29.3541C152.873 29.4301 152.786 29.6363 152.6 29.9725C152.415 30.3088 152.197 30.6884 151.946 31.1114L151.178 32.2662C150.917 32.6132 150.791 32.8247 150.802 32.9007C150.288 34.2137 149.584 35.8248 148.689 37.7342C147.794 39.6436 146.981 41.5803 146.249 43.5444C145.735 44.8573 145.331 46.1162 145.035 47.321C144.804 48.4391 144.748 49.4164 144.865 50.2529C144.961 50.9373 145.183 51.4103 145.53 51.6717C146.345 51.4021 147.145 50.7468 147.929 49.706C148.789 48.6545 149.47 47.7058 149.972 46.8598L150.542 46.7797C150.649 47.5401 150.474 48.2239 150.016 48.8311L149.722 49.2214C149.438 49.9592 149.077 50.9793 148.64 52.2815C148.268 53.497 147.626 54.1689 146.713 54.2972Z" fill="#2B1205"/>
<path d="M174.137 50.3266C172.692 50.5297 171.004 50.3793 169.072 49.8753C167.151 49.4474 165.686 48.6838 164.679 47.5847C164.31 47.1711 164.056 46.7416 163.916 46.296C163.776 45.8504 163.641 45.4428 163.511 45.0733C163.222 43.563 163.094 42.379 163.129 41.5211C163.152 40.5871 163.296 39.6752 163.558 38.7852C163.821 37.8953 164.095 36.8099 164.38 35.529C164.424 35.2902 164.675 34.8672 165.132 34.26C165.59 33.6529 166.048 33.0458 166.505 32.4386C167.028 31.7448 167.349 31.2731 167.469 31.0235C167.785 30.5138 168.031 30.0528 168.206 29.6405C168.456 29.2175 168.875 28.8872 169.462 28.6496C169.604 28.5522 169.712 28.4982 169.788 28.4875C169.94 28.4661 170.049 28.4121 170.115 28.3253C170.323 27.5982 170.59 27.0177 170.917 26.5841C171.309 26.0637 171.744 25.5759 172.223 25.1209C172.626 24.6765 173.469 24.054 174.753 23.2532C176.112 22.4418 177.058 21.9986 177.59 21.9238C177.97 21.8704 178.323 21.8983 178.649 22.0077C179.05 22.1063 179.441 22.1289 179.822 22.0755L180.148 21.9133C180.267 22.2068 180.608 22.4303 181.173 22.5836C181.748 22.813 182.524 23.0917 183.5 23.4197C184.553 23.737 185.16 24.1945 185.322 24.7922C185.354 25.0204 185.266 25.498 185.058 26.2252C184.926 26.9417 184.674 27.6362 184.304 28.3087C184.009 28.9705 183.677 29.3661 183.307 29.4956C183.254 29.1154 183.211 28.8112 183.179 28.5831C183.223 28.3442 183.262 28.0674 183.295 27.7525C183.263 27.5244 183.236 27.3342 183.215 27.1821C183.259 26.9433 183.265 26.7098 183.233 26.4817C183.103 26.1122 182.903 25.7913 182.632 25.5192C182.361 25.2471 182.036 25.1377 181.655 25.1912C180.667 25.3301 179.59 25.9467 178.426 27.041C177.261 28.1352 176.189 29.3328 175.208 30.6338C174.217 31.8588 173.471 32.8943 172.969 33.7403C172 35.1173 171.182 36.473 170.517 37.8073C169.927 39.1309 169.56 40.656 169.415 42.3824C169.414 42.9255 169.412 43.4685 169.411 44.0115C169.486 44.5438 169.566 45.1142 169.652 45.7225C169.836 45.9293 169.949 46.1848 169.992 46.489C170.111 46.7825 170.262 47.0326 170.446 47.2394C170.609 47.294 170.701 47.3974 170.723 47.5495C170.82 47.6909 170.912 47.7943 170.999 47.8597L171.145 48.0718L171.161 48.1858L172.074 48.0576C172.834 47.9507 173.47 47.7838 173.981 47.5569C174.492 47.33 175.008 47.1411 175.53 46.9903C175.888 46.7847 176.253 46.6172 176.622 46.4877C177.057 46.2715 177.503 46.1313 177.959 46.0672C178.362 45.6229 178.813 45.2492 179.314 44.9462C179.803 44.5672 180.298 44.2263 180.798 43.9233L180.766 43.6952C181.385 43.6857 181.929 43.4154 182.397 42.8843C182.941 42.3426 183.426 41.9255 183.85 41.6333C185.46 40.3989 186.994 39.1751 188.452 37.9621C189.91 36.749 191.276 35.4326 192.55 34.0128C192.757 33.8286 193.23 33.3356 193.971 32.5336C194.711 31.7316 195.157 31.3199 195.309 31.2985C195.309 31.2985 195.375 31.2118 195.505 31.0383C196.167 31.3331 196.525 31.6705 196.578 32.0508C196.642 32.5071 196.478 32.9954 196.086 33.5158C195.694 34.0362 195.324 34.4372 194.976 34.7188C194.693 34.9136 194.415 35.1465 194.143 35.4174C193.937 35.6015 193.73 35.7857 193.523 35.9699C193.24 36.1647 192.963 36.3976 192.691 36.6685C192.484 36.8526 192.32 37.0695 192.2 37.319C192.091 37.6445 191.938 37.9374 191.742 38.1976C191.622 38.4471 191.377 38.6366 191.008 38.7661L190.926 39.0103C190.436 39.3893 189.952 39.8063 189.473 40.2614C188.984 40.6404 188.499 41.0574 188.02 41.5124C187.748 41.7833 187.536 41.9295 187.384 41.9508C186.601 42.4486 185.801 43.1039 184.985 43.9165C184.365 44.469 183.826 45.0488 183.368 45.6559C182.9 46.187 182.253 46.5494 181.427 46.743C181.35 47.2967 181.012 47.6543 180.415 47.8159C179.893 47.9667 179.453 48.1449 179.094 48.3505C177.615 49.4114 175.962 50.0701 174.137 50.3266Z" fill="#2B1205"/>
<path d="M214.954 43.776C213.585 43.9684 212.065 43.9106 210.393 43.6027C208.797 43.2842 207.354 42.6727 206.064 41.7684C204.85 40.8533 204.059 39.646 203.694 38.1465C203.64 37.7662 203.587 37.386 203.533 37.0058C203.556 36.6149 203.508 36.2726 203.389 35.9791C203.357 35.751 203.097 35.5549 202.608 35.3909L202.218 35.0968C201.893 34.9875 201.562 34.8401 201.225 34.6547C200.878 34.3933 200.678 34.0724 200.625 33.6922C200.842 33.5841 201.027 33.5194 201.179 33.498C201.559 33.4445 201.907 33.4345 202.222 33.4678C202.613 33.4904 202.96 33.4803 203.264 33.4375C203.188 33.4482 203.205 33.2908 203.314 32.9652C203.293 32.8131 203.31 32.6557 203.364 32.4929C203.408 32.2541 203.463 32.0913 203.528 32.0046C203.604 31.9939 203.681 31.7117 203.758 31.158C203.825 30.5282 203.891 30.17 203.956 30.0833C204.561 26.6636 205.616 23.6849 207.121 21.147C208.691 18.5223 211.03 16.4099 214.14 14.8096C214.433 14.6908 214.694 14.6154 214.922 14.5833C215.216 14.4645 215.515 14.3837 215.819 14.341C216.427 14.2555 217.258 14.3714 218.311 14.6887C219.353 14.93 220.302 15.3395 221.159 15.917C222.081 16.4078 222.628 16.9901 222.8 17.6638C222.843 17.968 222.88 18.2342 222.912 18.4623C223.02 18.6798 223.096 18.9406 223.139 19.2448C223.203 19.701 223.163 20.2494 223.021 20.8898L222.384 21.3282C222.275 21.6538 222.155 21.9033 222.024 22.0768L221.452 22.9715C220.929 23.6653 220.76 24.1157 220.944 24.3224L220.732 24.4686C220.732 24.4686 220.737 24.5066 220.748 24.5826C220.748 24.5826 220.71 24.588 220.634 24.5987L220.732 24.4686L220.634 24.5987L220.65 24.7127L220.096 24.907C219.824 25.1778 219.595 25.4814 219.409 25.8177C219.213 26.0779 219.023 26.3761 218.837 26.7123C217.867 28.0894 216.534 29.3625 214.837 30.5315C213.13 31.6246 211.564 32.6201 210.139 33.5183C209.921 33.6264 209.595 33.7886 209.16 34.0048C208.791 34.1343 208.546 34.3238 208.426 34.5733C208.175 34.9963 208.055 35.5173 208.064 36.1364C208.073 36.7554 208.116 37.3311 208.19 37.8635C208.471 38.7546 208.822 39.5971 209.244 40.3909C209.741 41.174 210.561 41.4853 211.701 41.325L212.728 41.1807C213.108 41.1273 213.483 41.0358 213.853 40.9064C214.298 40.7662 214.744 40.626 215.189 40.4858L215.924 39.9173L216.054 40.0154C216.489 39.7992 217.239 39.3447 218.305 38.6521C219.371 37.9594 220.399 37.2721 221.389 36.5902C222.368 35.8322 222.955 35.3231 223.151 35.0629L223.25 34.9328L223.332 34.6886L223.626 34.2983C224.856 33.1173 226.069 32.0938 227.265 31.2277C228.451 30.2855 229.567 29.1206 230.613 27.7328L230.873 27.9289L231.215 27.8808C231.214 28.4238 231.083 28.8688 230.821 29.2157C230.549 29.4866 230.25 29.8389 229.923 30.2726L229.661 30.891C228.951 32.4641 227.748 34.1068 226.049 35.8188C224.427 37.5202 222.925 38.9721 221.543 40.1745C221.054 40.5535 220.575 41.0085 220.107 41.5396C219.628 41.9946 219.062 42.3843 218.41 42.7087C217.171 43.2706 216.019 43.6264 214.954 43.776ZM209.316 30.1443C209.772 30.0802 210.076 30.0374 210.228 30.0161C210.446 29.9079 210.739 29.7892 211.109 29.6597C212.512 28.6094 213.78 27.4231 214.913 26.1007C216.121 24.7676 217.254 23.4452 218.31 22.1335C218.387 21.5798 218.703 21.0701 219.258 20.6044L219.667 20.198C219.797 20.0246 219.89 19.8564 219.945 19.6936C220.075 19.5202 220.13 19.3574 220.109 19.2053C220.174 19.1186 220.099 18.8577 219.882 18.4228L219.688 17.8685L219.656 17.6404C219.417 17.5964 219.108 17.6011 218.727 17.6546C218.227 17.9575 217.743 18.3745 217.275 18.9056C216.807 19.4367 216.274 19.7831 215.676 19.9446C215.436 20.4436 214.875 21.1428 213.993 22.0423C213.525 22.5733 213.057 23.1044 212.589 23.6355C212.186 24.0799 211.919 24.3888 211.788 24.5623C211.331 25.1694 210.802 26.0968 210.202 27.3444C209.591 28.5159 209.296 29.4492 209.316 30.1443Z" fill="#2B1205"/>
<path d="M239.246 45.9455C238.79 46.0096 238.383 45.8729 238.025 45.5354C237.602 45.2847 237.206 44.9526 236.838 44.539L236.286 43.9187C236.112 43.788 235.933 43.6193 235.749 43.4125C235.489 43.2164 235.207 43.1398 234.903 43.1825C234.849 42.8023 234.73 42.5088 234.546 42.302C234.362 42.0953 234.243 41.8018 234.19 41.4215C235.477 38.9917 237.214 36.7313 239.402 34.6402C241.579 32.4731 243.831 30.5668 246.159 28.9213L246.501 28.8732C246.893 28.3528 247.41 27.8924 248.052 27.492C248.694 27.0916 249.205 26.5932 249.587 25.9968C248.285 25.5594 246.998 25.2361 245.728 25.0269C244.523 24.7309 243.33 24.2395 242.148 23.5526C241.139 22.9964 240.147 22.2828 239.171 21.4118C238.185 20.4647 237.612 19.4208 237.452 18.2801C237.206 16.531 237.422 14.7559 238.099 12.9546C238.842 11.0666 239.844 9.64613 241.106 8.69329C241.336 8.11821 242.016 7.44098 243.147 6.66161C244.278 5.88223 245.453 5.13554 246.671 4.42152C247.889 3.7075 248.786 3.19367 249.362 2.88003C249.841 2.42498 250.385 2.15471 250.993 2.0692L252.38 1.17638L252.494 1.16035C253.255 1.05347 254.124 0.892541 255.102 0.677553C256.08 0.462568 256.873 0.312322 257.481 0.226821C258.013 0.152008 258.768 0.278614 259.745 0.606643C260.721 0.93467 261.638 1.38746 262.495 1.965C263.341 2.4665 263.806 3.02143 263.892 3.6298C264.021 3.99935 263.917 4.63444 263.578 5.53508C263.305 6.34899 262.955 7.17358 262.53 8.00886C262.17 8.75741 261.848 9.2291 261.565 9.42395L261.239 9.58611L260.783 9.65024L260.589 9.09591C260.915 8.66224 261.172 8.00578 261.359 7.12652C261.545 6.24725 261.596 5.50343 261.51 4.89506C261.35 3.75436 260.624 3.27486 259.331 3.45655C258.418 3.5848 257.527 3.86514 256.657 4.29758C255.853 4.64328 255.054 5.02701 254.26 5.44876C251.433 6.85419 248.98 8.43966 246.902 10.2052C244.813 11.8946 243.097 14.3072 241.754 17.4428C241.339 18.3541 241.18 19.152 241.276 19.8364C241.437 20.9771 242.57 21.8648 244.675 22.4995C244.99 22.5328 245.684 22.7841 246.758 23.2536C247.898 23.6363 248.999 24.0243 250.063 24.4177C251.116 24.735 251.642 24.8937 251.642 24.8937C252.022 24.8403 252.381 24.6347 252.718 24.2771C253.045 23.8434 253.35 23.5292 253.633 23.3343C254.84 22.5443 256.33 21.5594 258.103 20.3796C259.865 19.1238 261.42 18.3237 262.768 17.9792C262.985 17.8711 263.203 17.763 263.42 17.6549C263.714 17.5361 264.007 17.4173 264.301 17.2985C264.681 17.245 264.974 17.3977 265.179 17.7566C265.081 18.1582 264.776 18.4725 264.265 18.6994C263.927 19.057 263.405 19.4794 262.698 19.9665C261.98 20.3775 261.371 20.7346 260.871 21.0375C260.36 21.2644 259.947 21.6327 259.631 22.1424C259.587 22.3813 259.39 22.6415 259.042 22.9231C258.563 23.3781 257.807 24.066 256.773 24.9868C255.805 25.8208 255.417 26.6508 255.611 27.4766C255.643 27.7047 255.925 28.0529 256.456 28.5211C257.052 28.9026 257.415 29.2781 257.545 29.6476C257.706 30.2453 257.672 31.1032 257.441 32.2213C257.286 33.3287 256.98 34.186 256.523 34.7931L256.701 35.2334C256.19 35.4603 255.88 35.7365 255.771 36.0621C255.651 36.3116 255.465 36.6478 255.214 37.0708C255.029 37.4071 254.795 37.6726 254.512 37.8675C254.24 38.1384 253.838 38.3112 253.305 38.386L252.831 39.1506L252.717 39.1666C252.185 39.2414 251.755 39.4957 251.429 39.9294C251.112 40.4391 250.791 40.9108 250.464 41.3444L250.106 41.2785C249.726 41.3319 249.215 41.5588 248.573 41.9592C248.018 42.4249 247.561 42.7606 247.202 42.9661C246.702 43.269 246.159 43.5393 245.572 43.7769C244.985 44.0145 244.311 44.1867 243.55 44.2936C243.322 44.3257 243.094 44.3577 242.866 44.3898C242.638 44.4219 242.404 44.4159 242.165 44.3719C242.1 44.4587 241.991 44.5127 241.839 44.5341L241.529 44.8103C241.094 45.0265 240.763 45.1507 240.535 45.1827C240.078 45.2469 239.829 45.1268 239.786 44.8227C239.83 44.5838 239.95 44.3343 240.146 44.0741C240.277 43.9006 240.592 43.6624 241.093 43.3595C241.604 43.1326 242.104 42.8296 242.593 42.4506C243.17 42.137 243.665 41.796 244.078 41.4277C244.578 41.1247 244.975 40.9139 245.269 40.7951C245.334 40.7083 245.4 40.6216 245.465 40.5349C245.53 40.4481 245.596 40.3614 245.661 40.2746L246.281 39.7222C247.25 38.8881 248.267 37.8533 249.335 36.6176C250.391 35.3059 251.247 33.9449 251.901 32.5345C252.632 31.1135 252.842 29.8433 252.529 28.724C252.508 28.5719 252.432 28.3111 252.303 27.9415C252.173 27.572 251.995 27.4032 251.766 27.4353C251.538 27.4674 251.294 27.6569 251.032 28.0038C250.771 28.3507 250.575 28.6109 250.444 28.7844C249.965 29.2395 249.41 29.7052 248.779 30.1816C248.224 30.6473 247.675 31.1511 247.13 31.6929C246.445 32.3321 245.846 33.0367 245.334 33.8066C244.811 34.5005 244.212 35.205 243.537 35.9203C242.655 36.8197 241.817 37.7518 241.022 38.7165C240.292 39.5945 239.573 40.5486 238.865 41.5788C238.494 42.2512 238.362 42.9677 238.469 43.7282C238.588 44.0217 238.745 44.3099 238.939 44.5927C239.145 44.9515 239.312 45.3157 239.442 45.6853L239.36 45.9294L239.246 45.9455Z" fill="#2B1205"/>
</svg>
